<?xml version="1.0" encoding="UTF-8" standalone="no"?>
<svg
   xmlns:dc="http://purl.org/dc/elements/1.1/"
   xmlns:cc="http://creativecommons.org/ns#"
   xmlns:rdf="http://www.w3.org/1999/02/22-rdf-syntax-ns#"
   xmlns:svg="http://www.w3.org/2000/svg"
   xmlns="http://www.w3.org/2000/svg"
   viewBox="0 0 4026.6667 2400"
   height="2400"
   width="4026.6667"
   xml:space="preserve"
   id="svg2"
   version="1.1"><metadata
     id="metadata8"><rdf:RDF><cc:Work
         rdf:about=""><dc:format>image/svg+xml</dc:format><dc:type
           rdf:resource="http://purl.org/dc/dcmitype/StillImage" /></cc:Work></rdf:RDF></metadata><defs
     id="defs6"><clipPath
       id="clipPath186"
       clipPathUnits="userSpaceOnUse"><path
         id="path184"
         d="m 22354.5,7961.1 c -100.5,37.7 -217.9,98.27 -337.4,167.99 -119.5,69.73 -241.2,148.57 -350.2,222.7 -109.1,74.14 -205.6,143.57 -274.9,194.46 -69.2,50.89 -111.2,83.25 -111.2,83.25 l -22.3,47.07 -22.3,47.06 -22.4,47.06 -22.3,47.07 284.1,-88.54 284.2,-88.54 284.1,-88.54 284.2,-88.54 38,108.71 38.1,108.71 38,108.71 38.1,108.71 70.3,-80.08 70.2,-80.07 70.2,-80.08 70.3,-80.07 -24.3,-140.55 -24.3,-140.54 -24.2,-140.55 -24.3,-140.54 v 0 0 0 0 c -21.5,-14.5 -45.5,-27.46 -71,-38.16 -25.4,-10.7 -52.4,-19.1 -79.7,-24.6 -27.3,-5.6 -54.9,-8.1 -81.8,-7 -26.8,1.1 -53,5.8 -77.2,14.9 z" /></clipPath><clipPath
       id="clipPath214"
       clipPathUnits="userSpaceOnUse"><path
         id="path212"
         d="m 23613.5,9718.59 h 259.3 c 0,0 24.4,-19.3 62.6,-52.66 38.3,-33.35 90.3,-80.75 145.6,-136.96 55.2,-56.2 113.7,-121.21 164.8,-189.77 51,-68.55 94.7,-140.66 120.3,-211.07 25.6,-70.4 46.8,-151.32 64.1,-233.08 17.3,-81.77 30.8,-164.39 41.1,-238.21 10.3,-73.81 17.4,-138.83 22,-185.39 4.5,-46.56 6.4,-74.67 6.4,-74.67 l -138.2,0.79 -138.3,0.79 -138.3,0.8 -138.3,0.79 c 0,0 9,-46.89 24.1,-126.46 15.1,-79.56 36.2,-191.79 60.4,-322.49 24.1,-130.7 51.3,-279.8 78.6,-433.2 27.3,-153.3 54.6,-310.9 79,-458.5 0,0 -78.5,-10.8 -202.9,-24.6 -124.4,-13.9 -294.8,-30.8 -478.6,-42.9 -183.9,-12.2 -381.1,-19.6 -559.3,-14.5 -178.2,5.1 -337.3,22.8 -444.8,60.7 l 58.4,385.3 58.5,385.2 58.4,385.3 58.5,385.28 -72.6,90.32 -72.6,90.33 -72.5,90.32 -72.6,90.33 c 0,0 16.3,32.58 42.3,82.47 25.9,49.9 61.4,117.11 99.9,186.37 38.4,69.26 79.8,140.58 117.3,198.69 37.6,58.11 71.3,103.02 94.5,119.45 23.2,16.43 73.3,36.6 135.4,57.61 62.1,21.01 136.2,42.86 207.3,62.65 71.2,19.8 139.5,37.54 190,50.33 50.4,12.79 83.1,20.64 83.1,20.64 h 49.3 49.3 49.2 z" /></clipPath><clipPath
       id="clipPath238"
       clipPathUnits="userSpaceOnUse"><path
         id="path236"
         d="m 23241.1,10566.7 c 0,0 -15.6,-41.7 -33.6,-104.4 -17.9,-62.6 -38.1,-146.3 -47.2,-230.4 -9.1,-84 -7.1,-168.4 19.4,-232.39 26.5,-64.04 77.6,-107.74 166.5,-110.45 89,-2.7 171.3,19.55 243.2,58.65 71.9,39.09 133.3,94.99 180.6,159.69 47.2,64.6 80.2,138 95.2,212 15.1,73.9 12.1,148.5 -12.7,215.5 -24.8,67.1 -66.9,130.3 -118.2,180.5 -51.3,50.2 -111.9,87.4 -173.6,102.4 -61.7,14.9 -124.5,7.6 -180.5,-31.1 -55.9,-38.8 -105,-109.1 -139.1,-220 z" /></clipPath><clipPath
       id="clipPath294"
       clipPathUnits="userSpaceOnUse"><path
         id="path292"
         d="m 24434.3,8020.86 -2.1,94.08 -2,94.09 -2,94.08 -2,94.09 -119.9,0.69 -119.9,0.69 -119.9,0.68 -119.9,0.69 10.9,-63.89 10.8,-63.89 10.9,-63.89 10.8,-63.9 -217.1,135.93 -217.2,135.92 -217.2,135.92 -217.1,135.92 v 0 0 0 0 c 0,0 -12.2,14.1 -30.9,35.28 -18.7,21.19 -43.9,49.46 -69.9,77.81 -26,28.36 -52.8,56.79 -74.7,78.3 -21.9,21.51 -39,36.09 -45.5,36.74 -6.5,0.65 -24.5,-3.39 -47.8,-10.42 -23.4,-7.03 -52.1,-17.05 -80,-28.38 -27.9,-11.33 -55,-23.96 -75.1,-36.2 -20.2,-12.24 -33.3,-24.1 -33.3,-33.87 0,-9.78 1.6,-29.11 4.6,-52.93 3,-23.81 7.5,-52.12 13.4,-79.86 5.9,-27.73 13.1,-54.89 21.7,-76.42 8.5,-21.52 18.4,-37.41 29.4,-42.61 11,-5.19 32.2,-13.76 57.7,-23.7 25.6,-9.94 55.5,-21.24 84,-31.9 28.5,-10.66 55.6,-20.66 75.6,-28.01 20.1,-7.34 32.9,-12.02 32.9,-12.02 v 0 0 0 0 c 40.5,-39.08 97.3,-93.45 163.2,-155.48 65.9,-62.03 141,-131.72 218.3,-201.43 77.2,-69.71 156.5,-139.47 230.9,-201.57 74.3,-62.1 143.7,-116.6 201.1,-155.9 0.9,-0.7 2.9,-2.2 5.4,-3.9 2.5,-1.7 5.5,-3.7 8.5,-5.6 2.9,-1.9 5.8,-3.8 8,-5.2 2.3,-1.5 3.9,-2.5 4.2,-2.7 15.8,-10.7 31.6,-21.3 47.6,-31.5 16.1,-10.2 32.3,-19.9 49,-28.8 16.6,-8.8 33.7,-16.8 51.4,-23.4 17.6,-6.7 35.9,-12.1 55,-15.7 21.5,-4.1 43.4,-6.4 65.3,-6.7 21.8,-0.3 43.7,1.3 65.1,5.1 21.4,3.8 42.4,9.7 62.6,17.8 20.2,8.2 39.5,18.6 57.7,31.3 2,1.4 4,2.8 6,4.4 2,1.6 4.1,3.3 6.2,5 2.2,1.8 4.3,3.6 6.5,5.6 2.2,1.9 4.5,4 6.7,6.1 22.3,20.7 41.9,43.7 58.7,68.5 16.9,24.7 30.9,51.1 42.1,78.8 11.2,27.6 19.4,56.5 24.7,86.1 5.2,29.5 7.5,59.7 6.6,90.16 z" /></clipPath><clipPath
       id="clipPath320"
       clipPathUnits="userSpaceOnUse"><path
         id="path318"
         d="m 5645.76,1948.6 h -565.27 l -71.94,262.7 -71.95,262.8 -71.94,262.7 -71.95,262.7 h 274.52 274.51 274.52 274.51 l -61.25,-262.7 -61.25,-262.7 -61.26,-262.8 z" /></clipPath></defs><g
     transform="matrix(1.3333333,0,0,-1.3333333,0,2400)"
     id="g10"><g
       transform="scale(0.1)"
       id="g12"><g
         transform="scale(1.85276)"
         id="g14"><path
           id="path16"
           style="fill:#ffffff;fill-opacity:1;fill-rule:nonzero;stroke:none"
           d="m 16300,0 h -254.7 -254.6 -254.8 -254.7 -254.7 -254.6 -254.7 -254.7 -254.7 -254.6 -254.8 -254.7 -254.7 -254.6 -254.7 -254.7 -254.7 -254.6 -254.8 -254.7 -254.7 -254.6 -254.7 -254.7 -254.7 -254.65 -254.7 -254.7 -254.7 H 8659.4 8404.7 8150 7895.3 7640.65 7385.95 7131.25 6876.55 6621.9 6367.2 6112.5 5857.8 5603.15 5348.44 5093.75 4839.06 4584.37 4329.69 4075 3820.31 3565.62 3310.94 3056.25 2801.56 2546.87 2292.19 2037.5 1782.81 1528.12 1273.44 1018.75 764.065 509.375 254.687 0 v 151.773 151.828 151.773 151.828 151.773 151.828 151.777 151.82 151.78 151.82 151.78 151.83 151.77 151.83 151.77 151.83 151.77 151.83 151.77 151.83 151.77 151.83 151.77 151.83 151.77 151.83 151.78 151.82 151.8 151.8 151.81 151.8 151.8 151.8 151.8 151.8 151.8 151.8 151.8 151.8 151.8 151.8 151.8 151.8 151.8 151.8 151.8 151.8 151.8 151.8 151.81 151.8 151.8 151.8 151.8 151.8 151.8 151.8 151.8 151.8 151.8 151.8 151.8 151.8 h 254.687 254.688 254.69 254.685 254.69 254.68 254.69 254.69 254.69 254.68 254.69 254.69 254.69 254.68 254.69 254.69 254.69 254.68 254.69 254.69 254.69 254.71 254.65 254.7 254.7 254.7 254.65 254.7 254.7 254.7 254.65 254.7 254.7 254.7 254.65 254.7 254.7 254.7 254.65 254.7 254.7 254.7 254.6 254.7 254.7 254.8 254.6 254.7 254.7 254.7 254.6 254.7 254.7 254.8 254.6 254.7 254.7 254.7 254.6 254.7 254.7 254.8 254.6 254.7 v -151.8 -151.8 -151.8 -151.8 -151.8 -151.8 -151.8 -151.8 -151.8 -151.8 -151.8 -151.8 -151.8 -151.81 -151.8 -151.8 -151.8 -151.8 -151.8 -151.8 -151.8 -151.8 -151.8 -151.8 -151.8 -151.8 -151.8 -151.8 -151.8 -151.8 -151.8 -151.8 -151.8 -151.81 -151.8 -151.8 V 4098.59 3946.81 3794.98 3643.21 3491.38 3339.61 3187.78 3036.01 2884.18 2732.41 2580.58 2428.81 2276.98 2125.21 1973.38 1821.61 1669.78 1518 1366.18 1214.4 1062.58 910.803 758.975 607.202 455.374 303.601 151.773 L 16300,0" /></g><g
         transform="scale(1.64293)"
         id="g18"><path
           id="path20"
           style="fill:#f2f5fb;fill-opacity:1;fill-rule:nonzero;stroke:none"
           d="M 16029.9,1188.37 H 12655.6 9281.18 5906.81 2532.43 c 0,0 -70.38,259.11 -116.54,656.81 -46.17,397.65 -68.13,933.89 28.69,1488.2 96.83,554.32 312.45,1126.71 741.42,1596.57 428.99,469.89 1071.34,837.3 2021.64,981.7 0,0 41.61,183.22 153.01,458.1 111.4,274.89 292.6,641.43 571.78,1008.1 279.17,366.67 656.36,733.46 1159.67,1008.81 503.37,275.35 1132.86,459.27 1916.76,460.22 832.42,1 1507.84,-127.91 2052.84,-321.84 545,-193.92 959.4,-452.86 1269.8,-711.93 310.5,-259.06 516.8,-518.26 645.5,-712.68 128.8,-194.43 180,-324.09 180,-324.09 0,0 247,1.73 600.8,-83.43 353.7,-85.15 814.1,-257.19 1240.7,-604.71 426.6,-347.52 819.5,-870.53 1038.2,-1657.63 218.7,-787.13 263.3,-1838.3 -6.8,-3242.2" /></g><g
         transform="scale(1.38217)"
         id="g22"><path
           id="path24"
           style="fill:#e9ecf7;fill-opacity:1;fill-rule:nonzero;stroke:none"
           d="M 15602.9,9924.54 H 14182.4 12761.9 11341.4 9920.88 c -96.23,0 -187.89,-19.5 -271.31,-54.77 -83.42,-35.28 -158.52,-86.33 -221.54,-149.39 -63.09,-63.08 -114.17,-138.19 -149.4,-221.58 -35.31,-83.39 -54.77,-175.09 -54.77,-271.34 V 8988.84 8750.2 8511.58 8272.95 7717.17 7161.39 6605.6 6049.82 c 0,-96.24 19.46,-187.93 54.77,-271.35 35.23,-83.35 86.31,-158.45 149.4,-221.54 63.02,-63.09 138.12,-114.17 221.54,-149.4 83.42,-35.31 175.08,-54.77 271.31,-54.77 h 559.52 559.4 559.5 559.4 345.4 345.5 345.6 345.4 v -312.7 -312.7 -312.69 -312.63 c 0,-32.12 9.2,-60.63 24.6,-84.21 15.5,-23.52 37.1,-42.11 61.9,-54.2 24.7,-12.08 52.7,-17.72 80.7,-15.33 28,2.31 56.3,12.59 81.5,32.34 l 334.8,343.01 334.7,343.01 334.8,343.09 334.8,343.01 h 118.6 118.7 118.6 118.6 c 96.2,0 188,19.46 271.3,54.77 83.4,35.23 158.5,86.31 221.6,149.4 63.1,63.09 114.1,138.19 149.4,221.54 35.3,83.42 54.8,175.11 54.8,271.35 v 794.41 794.41 794.41 794.41 c 0,96.25 -19.5,187.95 -54.8,271.34 -35.3,83.39 -86.3,158.5 -149.4,221.58 -63.1,63.06 -138.2,114.11 -221.6,149.39 -83.3,35.27 -175.1,54.77 -271.3,54.77" /></g><g
         transform="scale(1.01522)"
         id="g26"><path
           id="path28"
           style="fill:#95a8dd;fill-opacity:1;fill-rule:nonzero;stroke:none"
           d="m 12304.4,7991.59 v 756.67 756.67 756.67 756.7 H 11132.2 9959.8 8787.55 7615.27 c -131.04,0 -255.87,-26.6 -369.41,-74.6 -113.54,-48.1 -215.78,-117.5 -301.66,-203.4 -85.87,-85.9 -155.36,-188.1 -203.38,-301.7 -48.03,-113.5 -74.59,-238.3 -74.59,-369.4 V 8987.68 7906.13 6824.62 5743.08 c 0,-131.1 26.56,-255.9 74.59,-369.47 48.02,-113.48 117.51,-215.72 203.38,-301.61 85.88,-85.89 188.12,-155.43 301.66,-203.41 113.54,-48.06 238.37,-74.56 369.41,-74.56 h 1933.92 1933.91 1934 1933.8 c 131.1,0 255.9,26.5 369.5,74.56 113.5,47.98 215.7,117.52 301.6,203.41 85.9,85.89 155.4,188.13 203.4,301.61 48.1,113.57 74.6,238.37 74.6,369.47 v 324.86 324.86 324.85 324.96 h -761.6 -761.7 -761.6 -761.6 c -131.1,0 -255.9,26.49 -369.5,74.56 -113.5,47.97 -215.7,117.51 -301.6,203.4 -85.9,85.8 -155.4,188.04 -203.4,301.61 -48.1,113.57 -74.6,238.37 -74.6,369.41" /></g><g
         transform="scale(1.19763)"
         id="g30"><path
           id="path32"
           style="fill:#ffffff;fill-opacity:1;fill-rule:nonzero;stroke:none"
           d="m 16234.5,8926.6 -226.9,17.76 -227,17.75 -226.8,17.75 -227,17.75 16.5,209.45 16.3,209.46 16.4,209.45 16.4,209.45 226.9,-17.75 226.9,-17.75 226.9,-17.75 226.9,-17.75 -16.4,-209.46 -16.3,-209.44 -16.4,-209.46 -16.4,-209.46" /></g><g
         transform="scale(1.16906)"
         id="g34"><path
           id="path36"
           style="fill:#394e90;fill-opacity:1;fill-rule:nonzero;stroke:none"
           d="m 16298.5,10025.7 c -1.4,-11.7 -5.2,-22.6 -10.7,-32.24 -5.6,-9.63 -13,-18 -21.6,-24.73 -8.6,-6.73 -18.6,-11.81 -29.2,-14.85 -10.7,-3.02 -22.3,-4.01 -34,-2.55 -11.7,1.46 -22.6,5.23 -32.2,10.8 -9.6,5.56 -18,12.91 -24.8,21.57 -6.6,8.63 -11.8,18.6 -14.8,29.3 -3,10.7 -4,22.1 -2.5,33.9 1.4,11.7 5.2,22.6 10.7,32.2 5.6,9.6 13,18 21.6,24.7 8.7,6.7 18.6,11.8 29.3,14.8 10.7,3.1 22.2,4.1 33.9,2.6 11.7,-1.5 22.6,-5.2 32.3,-10.8 9.5,-5.5 17.9,-12.9 24.7,-21.6 6.7,-8.6 11.8,-18.5 14.8,-29.2 3.1,-10.7 4,-22.2 2.5,-33.9" /></g><g
         transform="scale(1.19836)"
         id="g38"><path
           id="path40"
           style="fill:#cfd3ee;fill-opacity:1;fill-rule:nonzero;stroke:none"
           d="m 16290.1,9758.47 2.5,-227.01 2.5,-227.01 2.5,-227.01 2.4,-227.01 -245.6,35.42 -245.7,35.42 -245.5,35.43 -245.7,35.43 226.8,-17.74 226.7,-17.74 226.8,-17.74 226.8,-17.74 16.4,209.33 16.4,209.32 16.3,209.32 16.4,209.33" /></g><g
         transform="scale(1.18872)"
         id="g42"><path
           id="path44"
           style="fill:#ffffff;fill-opacity:1;fill-rule:nonzero;stroke:none"
           d="m 16300,10147.2 -228.6,-18.5 -228.5,-18.5 -228.6,-18.5 -228.6,-18.5 -17,211 -17.1,211 -17.1,210.9 -17.1,211 228.6,18.5 228.6,18.5 228.5,18.5 228.6,18.5 17.1,-211 17,-210.9 17.1,-211 17.1,-211" /></g><g
         transform="scale(1.15519)"
         id="g46"><path
           id="path48"
           style="fill:#394e90;fill-opacity:1;fill-rule:nonzero;stroke:none"
           d="m 16299.7,11268.7 c 0.3,-11.9 -1.7,-23.4 -5.7,-33.9 -4,-10.5 -10,-20.1 -17.6,-28.2 -7.6,-8.1 -16.7,-14.7 -26.9,-19.5 -10.2,-4.7 -21.5,-7.5 -33.5,-8 -11.9,-0.4 -23.3,1.6 -33.9,5.7 -10.5,4 -20,10 -28.1,17.6 -8.2,7.5 -14.8,16.6 -19.5,26.8 -4.8,10.2 -7.6,21.5 -8.1,33.5 -0.3,11.9 1.7,23.4 5.7,33.9 4,10.5 10,20.1 17.6,28.2 7.6,8.1 16.6,14.8 26.9,19.5 10.2,4.8 21.5,7.6 33.5,8 11.9,0.4 23.3,-1.6 33.9,-5.7 10.5,-4 20,-10 28.1,-17.5 8.2,-7.6 14.8,-16.7 19.5,-26.9 4.8,-10.2 7.6,-21.5 8.1,-33.5" /></g><g
         transform="scale(1.19501)"
         id="g50"><path
           id="path52"
           style="fill:#b5bee3;fill-opacity:1;fill-rule:nonzero;stroke:none"
           d="m 16146.2,10933.2 38.4,-224.4 38.5,-224.4 38.5,-224.3 38.4,-224.4 -248.8,-3.9 -248.9,-3.9 -248.7,-3.9 -248.9,-3.9 227.4,18.5 227.3,18.4 227.4,18.3 227.3,18.4 -16.9,209.9 -17,209.9 -17,209.8 -17,209.9" /></g><g
         transform="scale(1.01504)"
         id="g54"><path
           id="path56"
           style="fill:#ffffff;fill-opacity:1;fill-rule:nonzero;stroke:none"
           d="m 16221.6,11263.4 -219.2,21.2 -219.1,21.2 -219.2,21.3 -219.2,21.2 19.6,202.3 19.6,202.3 19.6,202.3 19.6,202.4 219.2,-21.3 219.1,-21.2 219.2,-21.2 219.2,-21.3 -19.6,-202.3 -19.6,-202.3 -19.6,-202.3 -19.6,-202.3" /></g><path
         id="path58"
         style="fill:#394e90;fill-opacity:1;fill-rule:nonzero;stroke:none"
         d="m 16162.4,12283 c -1.6,-11.2 -5.4,-21.6 -10.9,-30.7 -5.5,-9.1 -12.8,-17 -21.2,-23.3 -8.4,-6.3 -18,-11 -28.3,-13.7 -10.3,-2.7 -21.3,-3.5 -32.5,-1.9 -11.2,1.7 -21.6,5.5 -30.7,11 -9.1,5.5 -17,12.7 -23.3,21.1 -6.3,8.4 -11,18 -13.7,28.3 -2.7,10.3 -3.5,21.3 -1.9,32.5 1.6,11.2 5.4,21.6 10.9,30.7 5.6,9.2 12.8,17 21.2,23.3 8.4,6.3 18,11 28.3,13.7 10.3,2.8 21.3,3.5 32.5,1.9 11.2,-1.6 21.6,-5.4 30.7,-10.9 9.1,-5.5 17,-12.7 23.3,-21.1 6.3,-8.4 11,-18 13.7,-28.3 2.7,-10.4 3.5,-21.4 1.9,-32.6" /><g
         transform="scale(1.01504)"
         id="g60"><path
           id="path62"
           style="fill:#b5bee3;fill-opacity:1;fill-rule:nonzero;stroke:none"
           d="m 16300,12072.6 -1.7,-219.7 -1.6,-219.8 -1.7,-219.8 -1.7,-219.8 -237.1,38.7 -237.1,38.7 -237.1,38.7 -237.1,38.7 219.2,-21.2 219.2,-21.3 219.1,-21.2 219.2,-21.2 19.6,202.3 19.6,202.3 19.6,202.3 19.6,202.3" /></g><path
         id="path64"
         style="fill:#ffffff;fill-opacity:1;fill-rule:nonzero;stroke:none"
         d="m 15496.1,10594.1 -222.4,21.5 -222.5,21.6 -222.5,21.5 -222.4,21.6 19.9,205.3 19.9,205.4 19.9,205.3 19.8,205.4 222.5,-21.6 222.5,-21.5 222.5,-21.6 222.4,-21.5 -19.9,-205.4 -19.9,-205.3 -19.9,-205.4 -19.9,-205.3" /><path
         id="path66"
         style="fill:#394e90;fill-opacity:1;fill-rule:nonzero;stroke:none"
         d="m 15192.9,11444.3 c -1.6,-11.2 -5.4,-21.6 -10.9,-30.7 -5.5,-9.2 -12.7,-17 -21.1,-23.3 -8.4,-6.3 -18,-11 -28.3,-13.7 -10.3,-2.8 -21.3,-3.5 -32.6,-1.9 -11.2,1.6 -21.5,5.4 -30.7,10.9 -9.1,5.5 -17,12.7 -23.3,21.1 -6.3,8.4 -11,18 -13.7,28.3 -2.7,10.4 -3.4,21.4 -1.8,32.6 1.6,11.2 5.4,21.5 10.9,30.7 5.5,9.1 12.7,17 21.1,23.3 8.4,6.3 18,11 28.3,13.7 10.3,2.7 21.3,3.5 32.5,1.8 11.3,-1.6 21.6,-5.4 30.7,-10.9 9.2,-5.5 17.1,-12.7 23.4,-21.1 6.3,-8.4 11,-18 13.7,-28.3 2.7,-10.3 3.4,-21.3 1.8,-32.5" /><path
         id="path68"
         style="fill:#b5bee3;fill-opacity:1;fill-rule:nonzero;stroke:none"
         d="m 15575.7,11415.5 -1.7,-223.1 -1.7,-223.1 -1.6,-223 -1.7,-223.1 -192.1,34.5 -192,34.6 -192,34.6 -192,34.5 173.8,-16.8 173.8,-16.9 173.8,-16.8 173.8,-16.8 19.9,205.3 19.9,205.4 19.9,205.3 19.9,205.4" /><g
         transform="scale(1.1193)"
         id="g70"><path
           id="path72"
           style="fill:#ffffff;fill-opacity:1;fill-rule:nonzero;stroke:none"
           d="m 16300,7474.03 -197.7,-27.93 -197.7,-27.92 -197.7,-27.93 -197.8,-27.93 -25.8,182.52 -25.7,182.51 -25.8,182.52 -25.8,182.52 197.8,27.92 197.7,27.93 197.7,27.93 197.7,27.93 25.8,-182.52 25.7,-182.52 25.9,-182.51 25.7,-182.52" /></g><g
         transform="scale(1.08904)"
         id="g74"><path
           id="path76"
           style="fill:#394e90;fill-opacity:1;fill-rule:nonzero;stroke:none"
           d="m 16299,8375.23 c 1,-10.35 -0.2,-20.42 -3.1,-29.75 -3,-9.33 -7.7,-17.93 -13.8,-25.36 -6.2,-7.43 -13.8,-13.69 -22.3,-18.34 -8.7,-4.64 -18.3,-7.67 -28.7,-8.66 -10.3,-0.98 -20.4,0.19 -29.7,3.14 -9.4,2.94 -18,7.67 -25.4,13.82 -7.4,6.14 -13.7,13.69 -18.3,22.31 -4.7,8.61 -7.7,18.28 -8.7,28.64 -1,10.36 0.2,20.42 3.2,29.75 2.9,9.34 7.6,17.94 13.7,25.37 6.2,7.43 13.7,13.68 22.3,18.33 8.7,4.64 18.3,7.68 28.7,8.66 10.4,0.98 20.4,-0.19 29.7,-3.13 9.4,-2.94 18,-7.67 25.4,-13.81 7.4,-6.15 13.7,-13.71 18.4,-22.33 4.6,-8.61 7.7,-18.28 8.6,-28.64" /></g><g
         transform="scale(1.12466)"
         id="g78"><path
           id="path80"
           style="fill:#cfd3ee;fill-opacity:1;fill-rule:nonzero;stroke:none"
           d="m 16119.7,8164.98 45.1,-193.16 45,-193.17 45.1,-193.16 45.1,-193.16 -216.2,-16.27 -216.2,-16.28 -216.2,-16.28 -216.2,-16.28 196.8,27.8 196.7,27.79 196.8,27.8 196.8,27.79 -25.6,181.65 -25.7,181.64 -25.6,181.65 -25.7,181.64" /></g><g
         transform="scale(1.11748)"
         id="g82"><path
           id="path84"
           style="fill:#ffffff;fill-opacity:1;fill-rule:nonzero;stroke:none"
           d="m 16229.8,8618.47 -243.3,19.03 -243.1,19.02 -243.2,19.03 -243.2,19.01 17.6,224.48 17.5,224.48 17.6,224.47 17.6,224.47 243.1,-19.02 243.2,-19.03 243.2,-19.01 243.2,-19.03 -17.5,-224.47 -17.7,-224.48 -17.5,-224.47 -17.5,-224.48" /></g><g
         transform="scale(1.08891)"
         id="g86"><path
           id="path88"
           style="fill:#394e90;fill-opacity:1;fill-rule:nonzero;stroke:none"
           d="m 16298.4,9790.36 c -1.5,-12.59 -5.7,-24.27 -11.6,-34.61 -6,-10.33 -13.9,-19.32 -23.2,-26.54 -9.2,-7.23 -19.9,-12.68 -31.4,-15.94 -11.5,-3.25 -23.8,-4.3 -36.3,-2.74 -12.6,1.57 -24.3,5.62 -34.7,11.59 -10.2,5.98 -19.2,13.87 -26.5,23.16 -7.3,9.27 -12.7,19.92 -15.9,31.41 -3.3,11.49 -4.3,23.8 -2.7,36.39 1.5,12.59 5.6,24.27 11.5,34.6 6,10.34 13.9,19.33 23.2,26.55 9.2,7.23 19.9,12.68 31.4,15.93 11.5,3.26 23.8,4.32 36.3,2.75 12.6,-1.57 24.4,-5.62 34.7,-11.59 10.3,-5.98 19.3,-13.87 26.5,-23.15 7.3,-9.29 12.7,-19.94 16,-31.43 3.2,-11.48 4.3,-23.79 2.7,-36.38" /></g><g
         transform="scale(1.11821)"
         id="g90"><path
           id="path92"
           style="fill:#b5bee3;fill-opacity:1;fill-rule:nonzero;stroke:none"
           d="m 16289.4,9510.16 2.6,-243.28 2.6,-243.28 2.7,-243.28 2.7,-243.29 -263.3,37.97 -263.2,37.96 -263.2,37.96 -263.2,37.97 242.9,-19.01 243.1,-19.01 243,-19.01 243.1,-19.01 17.5,224.33 17.5,224.32 17.6,224.33 17.6,224.33" /></g><g
         transform="scale(1.02977)"
         id="g94"><path
           id="path96"
           style="fill:#ffffff;fill-opacity:1;fill-rule:nonzero;stroke:none"
           d="m 16300,9837.04 -263.8,-21.35 -263.9,-21.36 -263.8,-21.34 -263.9,-21.35 -19.7,243.53 -19.7,243.53 -19.7,243.6 -19.7,243.5 263.8,21.4 263.9,21.3 263.8,21.4 263.8,21.3 19.8,-243.5 19.7,-243.6 19.7,-243.5 19.7,-243.56" /></g><path
         id="path98"
         style="fill:#394e90;fill-opacity:1;fill-rule:nonzero;stroke:none"
         d="m 16238.3,11085.2 c 0.4,-13.8 -1.9,-27 -6.6,-39.2 -4.6,-12.1 -11.5,-23.1 -20.3,-32.5 -8.7,-9.4 -19.2,-17.1 -31,-22.5 -11.8,-5.5 -24.9,-8.8 -38.7,-9.3 -13.8,-0.4 -27,1.9 -39.2,6.6 -12.1,4.6 -23.1,11.5 -32.5,20.3 -9.4,8.7 -17.1,19.2 -22.5,31 -5.5,11.8 -8.8,24.8 -9.3,38.7 -0.4,13.8 1.9,27 6.5,39.2 4.7,12.1 11.6,23.1 20.4,32.5 8.7,9.4 19.2,17.1 31,22.5 11.8,5.5 24.9,8.8 38.7,9.3 13.8,0.4 27,-1.9 39.2,-6.5 12.1,-4.7 23.1,-11.6 32.5,-20.4 9.4,-8.7 17.1,-19.2 22.5,-31 5.5,-11.8 8.8,-24.9 9.3,-38.7" /><g
         transform="scale(1.03606)"
         id="g100"><path
           id="path102"
           style="fill:#b5bee3;fill-opacity:1;fill-rule:nonzero;stroke:none"
           d="m 16122.6,10745.5 44.3,-258.8 44.4,-258.8 44.4,-258.81 44.3,-258.81 -287,-4.47 -287,-4.47 -287.1,-4.48 -286.9,-4.47 262.2,21.23 262.3,21.21 262.2,21.22 262.3,21.23 -19.6,242.02 -19.6,242.1 -19.6,242.1 -19.6,242" /></g><g
         transform="scale(1.04366)"
         id="g104"><path
           id="path106"
           style="fill:#ffffff;fill-opacity:1;fill-rule:nonzero;stroke:none"
           d="m 16300,8604.63 -207.9,-68.37 -207.9,-68.36 -208,-68.36 -207.9,-68.36 -63.1,191.93 -63.1,191.93 -63.1,191.93 -63.1,191.94 208,68.35 207.9,68.37 207.9,68.36 207.9,68.36 63.1,-191.93 63.1,-191.93 63.2,-191.93 63,-191.93" /></g><g
         transform="scale(1.00504)"
         id="g108"><path
           id="path110"
           style="fill:#394e90;fill-opacity:1;fill-rule:nonzero;stroke:none"
           d="m 16296.2,9602.67 c 3.1,-11.09 3.8,-22.3 2.4,-33.04 -1.4,-10.75 -4.9,-21.05 -10,-30.35 -5.3,-9.3 -12.4,-17.6 -20.8,-24.35 -8.5,-6.74 -18.4,-11.94 -29.6,-15.03 -11,-3.09 -22.3,-3.79 -33,-2.4 -10.8,1.39 -21,4.86 -30.4,10.11 -9.2,5.24 -17.6,12.26 -24.3,20.75 -6.7,8.47 -12,18.42 -15.1,29.52 -3.1,11.1 -3.8,22.29 -2.4,33.04 1.4,10.76 4.9,21.06 10.2,30.36 5.3,9.29 12.2,17.59 20.7,24.33 8.5,6.75 18.5,11.94 29.5,15.04 11.2,3.1 22.3,3.79 33.1,2.41 10.7,-1.39 21.1,-4.87 30.3,-10.11 9.4,-5.24 17.6,-12.27 24.4,-20.74 6.8,-8.49 11.9,-18.43 15,-29.54" /></g><g
         transform="scale(1.04963)"
         id="g112"><path
           id="path114"
           style="fill:#b5bee3;fill-opacity:1;fill-rule:nonzero;stroke:none"
           d="m 15956.4,9319.05 85.9,-199.5 85.8,-199.5 86,-199.5 85.9,-199.5 -229.9,-59.3 -229.9,-59.32 -230,-59.32 -229.9,-59.31 206.8,67.97 206.7,67.97 206.8,67.98 206.7,67.98 -62.7,190.83 -62.8,190.84 -62.8,190.84 -62.6,190.84" /></g><g
         transform="scale(1.27834)"
         id="g116"><path
           id="path118"
           style="fill:#ffffff;fill-opacity:1;fill-rule:nonzero;stroke:none"
           d="m 16300,8341.16 -169.8,-55.81 -169.7,-55.81 -169.8,-55.81 -169.7,-55.82 -51.6,156.7 -51.4,156.7 -51.6,156.7 -51.5,156.69 169.8,55.82 169.8,55.8 169.7,55.81 169.8,55.82 51.4,-156.7 51.6,-156.7 51.5,-156.69 51.5,-156.7" /></g><g
         transform="scale(1.23972)"
         id="g120"><path
           id="path122"
           style="fill:#394e90;fill-opacity:1;fill-rule:nonzero;stroke:none"
           d="m 16296.9,9142.07 c 2.5,-9 3.1,-18.08 2,-26.79 -1.2,-8.72 -4,-17.07 -8.3,-24.61 -4.2,-7.53 -9.9,-14.26 -16.7,-19.73 -6.9,-5.47 -15,-9.68 -24,-12.19 -8.9,-2.5 -18.1,-3.07 -26.8,-1.95 -8.7,1.13 -17.1,3.95 -24.6,8.2 -7.5,4.25 -14.3,9.94 -19.7,16.82 -5.4,6.88 -9.7,14.93 -12.2,23.94 -2.5,8.99 -3.1,18.07 -2,26.79 1.2,8.71 4,17.06 8.3,24.6 4.2,7.54 9.9,14.27 16.8,19.74 6.8,5.47 14.9,9.68 23.9,12.18 9,2.51 18.1,3.07 26.8,1.95 8.7,-1.12 17.1,-3.94 24.6,-8.2 7.6,-4.25 14.3,-9.94 19.8,-16.81 5.4,-6.89 9.6,-14.94 12.1,-23.94" /></g><g
         transform="scale(1.11067)"
         id="g124"><path
           id="path126"
           style="fill:#ffffff;fill-opacity:1;fill-rule:nonzero;stroke:none"
           d="m 16300,10086.7 -242.3,-38.8 -242.4,-38.8 -242.3,-38.8 -242.3,-38.82 -35.9,223.72 -35.8,223.7 -35.7,223.6 -35.9,223.7 242.3,38.9 242.4,38.8 242.3,38.8 242.4,38.8 35.8,-223.7 35.7,-223.7 35.9,-223.7 35.8,-223.7" /></g><g
         transform="scale(1.07274)"
         id="g128"><path
           id="path130"
           style="fill:#394e90;fill-opacity:1;fill-rule:nonzero;stroke:none"
           d="m 16298.6,11291.5 c 1.4,-12.8 0.2,-25.3 -3.2,-36.9 -3.4,-11.6 -9.1,-22.4 -16.6,-31.7 -7.3,-9.4 -16.6,-17.3 -27.2,-23.2 -10.5,-6 -22.4,-10 -35.2,-11.4 -12.8,-1.5 -25.3,-0.3 -36.9,3.2 -11.6,3.4 -22.4,9.1 -31.7,16.5 -9.3,7.4 -17.3,16.6 -23.2,27.2 -6,10.6 -9.9,22.5 -11.4,35.3 -1.4,12.7 -0.2,25.2 3.3,36.8 3.3,11.7 9,22.4 16.5,31.8 7.3,9.3 16.5,17.2 27.2,23.2 10.5,5.9 22.3,9.9 35.2,11.3 12.8,1.5 25.3,0.3 36.9,-3.1 11.6,-3.5 22.4,-9.1 31.7,-16.6 9.3,-7.4 17.3,-16.6 23.2,-27.2 6,-10.5 9.9,-22.4 11.4,-35.2" /></g><g
         transform="scale(1.11728)"
         id="g132"><path
           id="path134"
           style="fill:#b5bee3;fill-opacity:1;fill-rule:nonzero;stroke:none"
           d="m 16061.1,10916.5 59.7,-236.1 59.7,-236 59.8,-236.1 59.7,-236.04 -265,-24.89 -265,-24.89 -265.1,-24.89 -265,-24.89 241,38.58 240.8,38.59 241,38.58 240.8,38.55 -35.6,222.4 -35.6,222.4 -35.6,222.3 -35.6,222.4" /></g><g
         transform="scale(1.21273)"
         id="g136"><path
           id="path138"
           style="fill:#ffffff;fill-opacity:1;fill-rule:nonzero;stroke:none"
           d="m 16300,7738.43 -218.4,-52.75 -218.5,-52.74 -218.6,-52.75 -218.5,-52.75 -48.6,201.68 -48.8,201.68 -48.6,201.69 -48.7,201.67 218.5,52.75 218.5,52.75 218.5,52.75 218.4,52.75 48.8,-201.68 48.6,-201.68 48.7,-201.68 48.7,-201.69" /></g><g
         transform="scale(1.17063)"
         id="g140"><path
           id="path142"
           style="fill:#394e90;fill-opacity:1;fill-rule:nonzero;stroke:none"
           d="m 16297.8,8750.26 c 2.2,-11.59 2,-23.08 -0.3,-33.94 -2.3,-10.86 -6.7,-21.09 -12.8,-30.16 -6.1,-9.05 -14,-16.94 -23.2,-23.14 -9.3,-6.18 -19.8,-10.67 -31.4,-12.9 -11.6,-2.25 -23.1,-2.04 -34,0.27 -10.8,2.3 -21.1,6.7 -30.1,12.83 -9.1,6.12 -16.9,13.97 -23.2,23.2 -6.1,9.22 -10.7,19.8 -12.9,31.38 -2.2,11.6 -2,23.08 0.3,33.95 2.3,10.86 6.7,21.09 12.9,30.16 6,9.06 13.9,16.95 23.1,23.14 9.3,6.19 19.8,10.67 31.5,12.91 11.5,2.24 23,2.03 33.9,-0.28 10.8,-2.3 21.1,-6.7 30.1,-12.83 9.1,-6.12 16.9,-13.98 23.2,-23.19 6.1,-9.23 10.7,-19.81 12.9,-31.4" /></g><g
         transform="scale(1.21674)"
         id="g144"><path
           id="path146"
           style="fill:#cfd3ee;fill-opacity:1;fill-rule:nonzero;stroke:none"
           d="m 16052.2,8517.02 62,-210.56 61.9,-210.57 62,-210.57 61.9,-210.56 -231.2,-43.03 -231.2,-43.03 -231.2,-43.02 -231.2,-43.03 217.8,52.58 217.8,52.57 217.8,52.58 217.7,52.57 -48.5,201.02 -48.5,201.02 -48.5,201.02 -48.6,201.01" /></g><path
         id="path148"
         style="fill:#f2f5fb;fill-opacity:1;fill-rule:nonzero;stroke:none"
         d="m 7373.06,10224.3 c 368.94,4.9 743.53,8.5 1120.97,10.9 377.44,2.4 757.73,3.5 1138.06,3.5 380.31,0 760.71,-1.2 1138.31,-3.6 377.6,-2.4 752.5,-6 1121.8,-10.8 -369.4,-4.7 -744.3,-8.3 -1121.9,-10.7 -377.6,-2.4 -757.9,-3.6 -1138.2,-3.6 -380.29,-0.1 -760.53,1.1 -1137.96,3.5 -377.42,2.4 -752.04,6 -1121.08,10.8 v 0 0 0 0" /><path
         id="path150"
         style="fill:#f2f5fb;fill-opacity:1;fill-rule:nonzero;stroke:none"
         d="m 7373.06,9307.56 c 368.94,4.83 743.53,8.43 1120.97,10.82 377.44,2.39 757.73,3.57 1138.06,3.56 380.31,-0.02 760.71,-1.24 1138.31,-3.64 377.6,-2.4 752.5,-5.98 1121.8,-10.74 -369.4,-4.76 -744.3,-8.34 -1121.9,-10.74 -377.6,-2.4 -757.9,-3.62 -1138.2,-3.64 -380.29,-0.02 -760.53,1.16 -1137.96,3.56 -377.42,2.39 -752.04,5.99 -1121.08,10.82 v 0 0 0 0" /><path
         id="path152"
         style="fill:#f2f5fb;fill-opacity:1;fill-rule:nonzero;stroke:none"
         d="m 7373.06,8390.78 c 368.94,4.82 743.53,8.43 1120.97,10.82 377.44,2.39 757.73,3.57 1138.06,3.55 380.31,-0.01 760.71,-1.23 1138.31,-3.63 377.6,-2.4 752.5,-5.98 1121.8,-10.74 -369.4,-4.76 -744.3,-8.34 -1121.9,-10.74 -377.6,-2.41 -757.9,-3.62 -1138.2,-3.64 -380.29,-0.02 -760.53,1.16 -1137.96,3.55 -377.42,2.4 -752.04,6 -1121.08,10.83 v 0 0 0 0" /><path
         id="path154"
         style="fill:#f2f5fb;fill-opacity:1;fill-rule:nonzero;stroke:none"
         d="m 7373.06,7474 c 368.94,4.8 743.53,8.4 1120.97,10.8 377.44,2.4 757.73,3.6 1138.06,3.6 380.31,0 760.71,-1.3 1138.31,-3.7 377.6,-2.4 752.5,-5.9 1121.8,-10.7 -369.4,-4.8 -744.3,-8.3 -1121.9,-10.7 -377.6,-2.4 -757.9,-3.7 -1138.2,-3.7 -380.29,0 -760.53,1.2 -1137.96,3.6 -377.42,2.4 -752.04,6 -1121.08,10.8 v 0 0 0 0" /><path
         id="path156"
         style="fill:#f2f5fb;fill-opacity:1;fill-rule:nonzero;stroke:none"
         d="m 7373.06,6557.2 c 666.71,4.7 1353.72,8.2 2050.88,10.6 697.16,2.4 1404.46,3.5 2111.76,3.6 707.3,0 1414.7,-1.2 2111.8,-3.6 697.2,-2.3 1384.2,-5.9 2050.9,-10.6 -666.7,-4.7 -1353.7,-8.3 -2050.9,-10.6 -697.2,-2.4 -1404.5,-3.5 -2111.8,-3.5 -707.3,0 -1414.6,1.2 -2111.77,3.5 -697.16,2.4 -1384.17,5.9 -2050.87,10.6 v 0 0 0 0" /><path
         id="path158"
         style="fill:#f2f5fb;fill-opacity:1;fill-rule:nonzero;stroke:none"
         d="m 7373.06,5640.4 c 666.71,4.7 1353.72,8.3 2050.88,10.6 697.16,2.4 1404.46,3.6 2111.76,3.6 707.3,0 1414.7,-1.2 2111.8,-3.5 697.2,-2.4 1384.2,-5.9 2050.9,-10.7 -666.7,-4.7 -1353.7,-8.2 -2050.9,-10.6 -697.2,-2.4 -1404.5,-3.5 -2111.8,-3.5 -707.3,0 -1414.6,1.2 -2111.77,3.5 -697.16,2.4 -1384.17,5.9 -2050.87,10.6 v 0 0 0 0" /><g
         transform="scale(1.50998)"
         id="g160"><path
           id="path162"
           style="fill:#303364;fill-opacity:1;fill-rule:nonzero;stroke:none"
           d="m 15951.6,7037.14 c 0,0 7,-26.74 20.4,-70.75 13.3,-44.01 33,-105.28 58.1,-174.38 25.2,-69.09 55.9,-145.98 91.3,-221.22 35.4,-75.24 75.6,-148.82 119.8,-211.3 44.2,-62.46 58.8,-126.38 55.8,-187.13 -2.9,-60.75 -23.4,-118.32 -49.4,-168.08 -26,-49.77 -57.5,-91.73 -82.6,-121.24 -25,-29.52 -43.5,-46.59 -43.5,-46.59 l -225.7,130.2 -225.7,130.19 -225.8,130.2 -225.7,130.2 c 0,0 12.8,9.35 31.8,24.39 19,15.05 44.2,35.79 69.3,58.58 25.1,22.8 49.9,47.63 68,70.86 18.1,23.24 29.6,44.87 27.8,61.25 -1.7,16.38 -1.6,61.86 -0.3,120.87 1.2,59.01 3.5,131.54 6.1,202.03 2.5,70.5 5.3,138.94 7.4,189.76 2.2,50.82 3.7,84.02 3.7,84.02 l 129.8,-32.97 129.8,-32.97 129.8,-32.96 129.8,-32.96" /></g><g
         transform="scale(1.47866)"
         id="g164"><path
           id="path166"
           style="fill:#303364;fill-opacity:1;fill-rule:nonzero;stroke:none"
           d="m 15939.4,7396.87 c 0,0 16.7,8.88 43,17.3 26.3,8.42 62,16.39 100.2,14.57 38.1,-1.81 78.5,-13.41 114.1,-44.13 35.5,-30.71 66.2,-80.54 84.7,-158.8 18.6,-78.27 18.5,-146.45 7.9,-204.7 -10.6,-58.23 -31.7,-106.54 -55.1,-145.06 -23.4,-38.52 -49.1,-67.25 -69,-86.36 -19.9,-19.1 -33.9,-28.58 -33.9,-28.58 0,0 -12.9,30.05 -32.2,77.55 -19.3,47.5 -44.8,112.45 -69.7,182.23 -25.1,69.79 -49.6,144.42 -66.8,211.28 -17.2,66.87 -27.2,125.97 -23.2,164.7" /></g><g
         transform="scale(1.494)"
         id="g168"><path
           id="path170"
           style="fill:#da7987;fill-opacity:1;fill-rule:nonzero;stroke:none"
           d="m 16089,1793.04 0.6,-2.41 0.6,-2.41 0.6,-2.41 0.6,-2.41 c 3.8,-14.66 6.4,-29.52 7.9,-44.44 1.4,-15 1.7,-29.99 0.9,-44.92 -0.9,-14.92 -2.8,-29.78 -6,-44.51 -3.1,-14.66 -7.4,-29.12 -12.7,-43.31 l -6.3,-16.19 -6.1,-16.2 -6.2,-16.2 -6.2,-16.26 c 0,0 9.5,2.87 24.2,7.63 14.8,4.75 34.8,11.31 55.9,18.67 21,7.36 43.2,15.46 62.1,23.29 18.9,7.9 34.6,15.47 42.9,21.69 8.4,6.23 16.2,16.33 23.2,27.91 7,11.58 13.2,24.7 18.4,37.09 5.2,12.31 9.4,23.89 12.3,32.39 2.8,8.44 4.3,13.86 4.3,13.86 l -8.8,8.77 -8.9,8.7 -8.9,8.76 -8.9,8.77 -1.8,22.56 -1.9,22.56 -1.8,22.55 -1.9,22.56 -42,-13.99 -42.1,-14.06 -42,-13.98 -42,-14.06" /></g><g
         transform="scale(1.50099)"
         id="g172"><path
           id="path174"
           style="fill:#1e1e43;fill-opacity:1;fill-rule:nonzero;stroke:none"
           d="m 16224.1,1715.87 c -14.1,-29.31 -36.3,-55.3 -61.7,-77.82 -25.4,-22.51 -53.8,-41.57 -80.6,-56.96 -26.7,-15.39 -51.7,-27.11 -70,-34.98 -18.3,-7.85 -29.9,-11.92 -29.9,-11.92 -28.7,-37.64 -53.5,-71.02 -74.5,-100 -21,-28.91 -38.2,-53.43 -51.8,-73.15 -13.7,-19.79 -23.7,-34.85 -30.4,-44.97 -6.6,-10.13 -9.8,-15.32 -9.8,-15.32 l 44.8,14.92 44.7,14.92 44.7,14.93 44.8,14.92 54.4,41.1 54.4,41.11 54.4,41.17 54.4,41.11 7.6,-18.66 7.6,-18.72 7.7,-18.72 7.6,-18.65 c 0.4,-0.87 0.9,-1.67 1.5,-2.27 0.6,-0.66 1.4,-1.2 2.2,-1.53 0.8,-0.4 1.6,-0.6 2.5,-0.67 0.9,-0.06 1.8,0.07 2.7,0.41 l 11,3.59 10.8,3.67 10.9,3.59 11,3.67 c 0.7,0.27 1.4,0.6 2,1.06 0.6,0.47 1.2,1 1.6,1.6 0.4,0.67 0.8,1.33 1,2.07 0.2,0.73 0.3,1.53 0.2,2.27 l -1,30.17 -1,30.18 -1,30.18 -1,30.19 c -2.8,22.31 -8.7,41.43 -16,57.56 -7.2,16.19 -15.8,29.31 -24.1,39.64 -8.2,10.39 -16.2,17.98 -22,22.91 -5.9,5 -9.7,7.4 -9.7,7.4" /></g><g
         transform="scale(1.3964)"
         id="g176"><path
           id="path178"
           style="fill:#da7987;fill-opacity:1;fill-rule:nonzero;stroke:none"
           d="m 16008.7,5701.17 c -72,26.99 -156.1,70.37 -241.6,120.3 -85.6,49.93 -172.8,106.39 -250.8,159.48 -78.2,53.09 -147.3,102.81 -196.9,139.26 -49.5,36.44 -79.6,59.61 -79.6,59.61 l -16,33.71 -16,33.7 -16,33.71 -16,33.7 203.5,-63.4 203.5,-63.41 203.4,-63.4 203.6,-63.41 27.2,77.85 27.3,77.85 27.2,77.85 27.3,77.85 50.3,-57.35 50.3,-57.34 50.3,-57.34 50.3,-57.34 -17.4,-100.66 -17.4,-100.64 -17.3,-100.65 -17.4,-100.65 v 0 0 0 0 c -15.4,-10.38 -32.6,-19.66 -50.9,-27.33 -18.2,-7.66 -37.5,-13.67 -57.1,-17.61 -19.5,-4.01 -39.3,-5.8 -58.5,-5.02 -19.2,0.79 -38,4.16 -55.3,10.68" /></g><g
         id="g180"><g
           clip-path="url(#clipPath186)"
           id="g182"><g
             transform="scale(1.39644)"
             id="g188"><path
               id="path190"
               style="fill:#c05f71;fill-opacity:1;fill-rule:nonzero;stroke:none"
               d="m 16024.7,6325.68 c 0,0 7.2,-26.03 20.8,-65.86 13.6,-39.82 33.6,-93.42 59.1,-148.57 25.6,-55.14 56.8,-111.82 92.7,-157.77 36,-45.94 76.8,-81.17 121.5,-93.43 l 9.8,80.87 9.8,80.88 9.8,80.88 9.8,80.87 -50.8,63.11 -51,63.1 -50.8,63.1 -50.8,63.11 -32.5,-27.57 -32.5,-27.57 -32.4,-27.57 -32.5,-27.58" /></g></g></g><g
         transform="scale(1.36073)"
         id="g192"><path
           id="path194"
           style="fill:#303364;fill-opacity:1;fill-rule:nonzero;stroke:none"
           d="m 16270.6,6419.05 -122.3,-39 -122.3,-39 -122.3,-39 -122.2,-39 c -2.4,-0.74 -4.7,-1.1 -7.1,-1.1 -2.4,0 -4.7,0.35 -6.9,1.04 -2.3,0.69 -4.4,1.71 -6.3,3.04 -2,1.34 -3.8,2.98 -5.2,4.91 l -150.7,193.19 -150.7,193.2 -150.7,193.21 -150.7,193.19 c -2.5,3.21 -4,6.79 -4.6,10.43 -0.6,3.65 -0.3,7.36 0.7,10.83 1.1,3.46 2.9,6.68 5.5,9.34 2.6,2.66 5.9,4.77 9.7,6 l 125.5,40.01 125.5,40.01 125.4,40.02 125.5,40.01 c 4.1,1.31 8.3,1.95 12.5,1.96 4.2,0 8.3,-0.63 12.3,-1.85 4,-1.22 7.7,-3.04 11.2,-5.4 3.4,-2.36 6.5,-5.27 9.2,-8.69 l 144.8,-185.61 144.7,-185.62 144.8,-185.6 144.8,-185.62 c 4.4,-5.68 7.1,-12.03 8.2,-18.49 1.1,-6.47 0.6,-13.05 -1.3,-19.19 -1.9,-6.15 -5.2,-11.86 -9.8,-16.58 -4.6,-4.72 -10.3,-8.45 -17.2,-10.64" /></g><g
         transform="scale(1.3125)"
         id="g196"><path
           id="path198"
           style="fill:#da7987;fill-opacity:1;fill-rule:nonzero;stroke:none"
           d="m 16214.3,6568.91 c -23.2,5.81 -45.4,14.33 -66.1,25.23 -20.8,10.91 -40.1,24.22 -57.5,39.62 -17.4,15.39 -32.8,32.88 -45.9,52.15 -13.1,19.28 -23.8,40.34 -31.7,62.88 -0.6,1.93 -1.3,3.85 -1.9,5.75 -0.6,1.92 -1.1,3.81 -1.6,5.69 -0.6,1.89 -1.1,3.76 -1.6,5.62 -0.4,1.85 -0.8,3.68 -1.2,5.5 -0.7,3.45 -1.4,6.68 -1.9,9.62 -0.5,2.94 -0.9,5.6 -1.1,7.91 -0.3,2.32 -0.4,4.29 -0.4,5.87 0.1,1.58 0.2,2.76 0.6,3.49 l 15.8,31.22 15.8,31.21 15.8,31.21 15.8,31.21 c 3.2,6.41 7.7,11.58 13.1,15.41 5.3,3.84 11.5,6.34 17.8,7.42 6.4,1.08 12.9,0.74 19.3,-1.12 6.3,-1.86 12.3,-5.23 17.5,-10.21 l 8.6,-8.32 8.6,-8.31 8.7,-8.32 8.6,-8.32 c 6.6,-6.36 12.7,-13.27 18,-20.62 5.2,-7.35 9.9,-15.15 13.9,-23.28 3.8,-8.15 7,-16.63 9.5,-25.38 2.4,-8.73 4.1,-17.72 4.9,-26.86 l 4,-42.34 3.9,-42.33 3.9,-42.34 4,-42.34 17.1,-22.11 17.1,-22.11 17.2,-22.11 17.1,-22.11 -21.5,5.38 -21.4,5.38 -21.4,5.38 -21.4,5.38" /></g><g
         transform="scale(1.49167)"
         id="g200"><path
           id="path202"
           style="fill:#394e90;fill-opacity:1;fill-rule:nonzero;stroke:none"
           d="m 16080.6,3226.17 c -9.2,74.08 7.8,179.67 34,304.29 26.2,124.63 61.7,268.29 89.5,418.66 27.8,150.37 48,307.37 43.5,458.54 -4.4,151.24 -33.4,296.72 -103.9,423.96 l -250.4,-0.74 -250.3,-0.74 -250.5,-0.8 -250.4,-0.74 c 0,0 -16.1,-64.16 -40.2,-166.39 -24.1,-102.24 -56.3,-242.55 -88.6,-394.99 -32.3,-152.45 -64.6,-317.03 -89,-467.6 -24.3,-150.63 -40.8,-287.33 -41.3,-384.06 -0.5,-96.81 2,-249.79 5.9,-424.89 4,-175.11 9.4,-372.27 15,-557.3 5.4,-185.09 11,-358.05 15.2,-484.76 4.2,-126.76 7,-207.15 7,-207.15 h 54 54 54 54 c 0,0 13.8,78.24 35.4,200.25 21.7,121.94 51.2,287.6 82.9,462.37 31.6,174.77 65.3,358.59 95.2,516.93 29.9,158.35 56.1,291.22 72.6,364.02 1.6,7.38 3.7,15.09 6,23 2.3,7.98 5,16.15 7.9,24.67 3,8.45 6.2,17.23 9.7,26.21 3.5,8.98 7.3,18.17 11.4,27.69 4.7,-21.79 9.6,-42.91 14.6,-63.29 4.9,-20.31 9.8,-39.89 14.9,-58.59 5,-18.64 10.1,-36.47 15.2,-53.29 5.1,-16.76 10.3,-32.59 15.5,-47.27 32.3,-91.17 84.4,-224.91 144.2,-374.27 59.8,-149.37 127.4,-314.28 191,-467.8 63.6,-153.52 123.2,-295.64 166.8,-399.42 43.7,-103.78 71.4,-169.14 71.4,-169.14 l 50.8,18.3 50.8,18.31 50.8,18.3 50.8,18.3 c 0,0 -11.4,68.98 -29.2,177.05 -17.7,108 -41.7,255.15 -66.8,411.62 -25.2,156.4 -51.5,322.05 -73.7,467.12 -22.4,145.07 -40.6,269.56 -49.7,343.64" /></g><g
         transform="scale(1.50305)"
         id="g204"><path
           id="path206"
           style="fill:#f6dd70;fill-opacity:1;fill-rule:nonzero;stroke:none"
           d="m 15710.4,6465.92 h 43.1 43.1 43.2 43.1 c 0,0 16.2,-12.84 41.7,-35.04 25.4,-22.19 60,-53.72 96.8,-91.12 36.8,-37.39 75.7,-80.64 109.7,-126.26 33.9,-45.6 63,-93.58 80,-140.43 17,-46.83 31.2,-100.67 42.7,-155.07 11.5,-54.4 20.5,-109.37 27.3,-158.48 6.9,-49.11 11.6,-92.37 14.6,-123.34 3,-30.98 4.3,-49.68 4.3,-49.68 l -91.9,0.52 -92.1,0.53 -92,0.53 -92,0.53 c 0,0 6,-31.2 16.1,-84.14 10,-52.93 24,-127.6 40.1,-214.56 16.1,-86.95 34.2,-186.15 52.3,-288.21 18.2,-101.99 36.4,-206.85 52.6,-305.05 0,0 -52.2,-7.18 -135,-16.36 -82.8,-9.25 -196.1,-20.49 -318.4,-28.54 -122.4,-8.12 -253.6,-13.05 -372.1,-9.65 -118.6,3.39 -224.4,15.17 -296,40.38 l 38.9,256.35 38.9,256.28 38.9,256.34 38.9,256.34 -48.3,60.09 -48.3,60.09 -48.3,60.1 -48.3,60.09 c 0,0 10.9,21.68 28.2,54.87 17.2,33.2 40.8,77.92 66.5,123.99 25.5,46.09 53,93.54 78,132.2 25,38.66 47.4,68.54 62.9,79.47 15.4,10.93 48.7,24.35 90,38.33 41.4,13.98 90.7,28.51 138,41.68 47.3,13.17 92.8,24.98 126.4,33.48 33.5,8.52 55.3,13.74 55.3,13.74 h 32.8 32.8 32.7 32.8" /></g><g
         id="g208"><g
           clip-path="url(#clipPath214)"
           id="g210"><g
             transform="scale(1.47834)"
             id="g216"><path
               id="path218"
               style="fill:#f1c134;fill-opacity:1;fill-rule:nonzero;stroke:none"
               d="m 16300,5259.47 -58.4,87.6 -58.4,87.68 -58.4,87.65 -58.4,87.65 22,99.38 22.1,99.37 22,99.37 22.1,99.38 10.9,-81.39 10.9,-81.38 11,-81.39 10.9,-81.39 25.4,-105.64 25.4,-105.64 25.5,-105.66 25.4,-105.59" /></g><g
             transform="scale(1.48385)"
             id="g220"><path
               id="path222"
               style="fill:#f1c134;fill-opacity:1;fill-rule:nonzero;stroke:none"
               d="m 15981.2,5310.66 c 0,0 -5,-16.92 -6.2,-44.21 -1.2,-27.23 1.2,-64.84 16.1,-105.94 14.9,-41.18 42.4,-85.93 90.9,-127.58 48.6,-41.71 118.3,-80.26 218,-109.11 l -7.4,84.04 -7.4,83.97 -7.4,84.04 -7.5,84.04 -72.2,12.67 -72.3,12.74 -72.3,12.67 -72.3,12.67" /></g><g
             transform="scale(1.40499)"
             id="g224"><path
               id="path226"
               style="fill:#f1c134;fill-opacity:1;fill-rule:nonzero;stroke:none"
               d="m 16110.5,6159.74 47.4,100.07 47.4,100.07 47.3,100.07 47.4,100.07 -30.8,-123.83 -30.9,-123.84 -30.8,-123.84 -30.9,-123.84 -16.5,23.76 -16.5,23.77 -16.6,23.77 -16.5,23.77" /></g></g></g><g
         transform="scale(1.46505)"
         id="g228"><path
           id="path230"
           style="fill:#da7987;fill-opacity:1;fill-rule:nonzero;stroke:none"
           d="m 15863.7,7212.52 c 0,0 -10.6,-28.45 -22.9,-71.23 -12.3,-42.79 -26,-99.91 -32.3,-157.26 -6.2,-57.36 -4.8,-114.95 13.3,-158.65 18.1,-43.72 53,-73.55 113.6,-75.39 60.8,-1.85 117,13.34 166,40.03 49.1,26.68 91,64.86 123.3,108.98 32.2,44.13 54.8,94.21 65,144.7 10.3,50.49 8.3,101.38 -8.7,147.14 -16.9,45.75 -45.6,88.92 -80.7,123.2 -35,34.27 -76.3,59.66 -118.4,69.87 -42.2,10.21 -85,5.22 -123.3,-21.24 -38.1,-26.47 -71.6,-74.42 -94.9,-150.15" /></g><g
         id="g232"><g
           clip-path="url(#clipPath238)"
           id="g234"><g
             transform="scale(1.46472)"
             id="g240"><path
               id="path242"
               style="fill:#c05f71;fill-opacity:1;fill-rule:nonzero;stroke:none"
               d="m 16283.1,7167.46 c 0,0 -17.4,-1.8 -46,-3.07 -28.7,-1.28 -68.7,-2.03 -114,0.08 -45.3,2.11 -96,7.07 -146,17.22 -50,10.15 -99.4,25.49 -142,48.34 0,0 3.2,9.46 9.4,23.97 6.1,14.52 15.1,34.09 26.3,54.32 11.3,20.23 24.8,41.11 40.2,58.25 15.3,17.14 32.6,30.53 51,35.77 18.4,5.26 45.1,4.31 75.4,-1.14 30.3,-5.46 64.3,-15.43 97.2,-28.26 33.1,-12.83 65.1,-28.52 91.6,-45.39 26.5,-16.89 47.5,-34.96 58.4,-52.57 10.8,-17.61 16.2,-33.13 18.1,-46.51 1.9,-13.38 0.3,-24.62 -2.6,-33.66 -2.9,-9.03 -7.1,-15.87 -10.7,-20.46 -3.5,-4.57 -6.3,-6.89 -6.3,-6.89" /></g></g></g><g
         transform="scale(1.46475)"
         id="g244"><path
           id="path246"
           style="fill:#da7987;fill-opacity:1;fill-rule:nonzero;stroke:none"
           d="m 16299.7,7094.22 c 0,0 -2.1,-14.84 -4.8,-40.55 -2.5,-25.72 -5.8,-62.31 -7.9,-105.84 -2.2,-43.54 -3.4,-94 -2,-147.46 1.3,-53.46 5.2,-109.9 13.2,-165.38 1.8,-12.43 1.6,-24.79 -0.5,-36.7 -2,-11.9 -5.8,-23.35 -11.3,-33.94 -5.4,-10.58 -12.5,-20.31 -21.1,-28.76 -8.6,-8.46 -18.6,-15.65 -29.8,-21.17 -15.4,-7.58 -32.5,-15.4 -50.5,-22.75 -17.9,-7.36 -36.7,-14.24 -55.7,-19.95 -19,-5.7 -38.3,-10.23 -57,-12.87 -18.6,-2.64 -36.9,-3.39 -53.8,-1.54 -29.4,3.22 -40.5,36.71 -40.5,85.14 -0.1,48.44 10.8,111.82 25.5,174.8 14.6,62.97 33,125.55 47.6,172.38 14.7,46.83 25.7,77.91 25.7,77.91 l 55.7,31.67 55.7,31.67 55.7,31.66 55.8,31.68" /></g><g
         transform="scale(1.45483)"
         id="g248"><path
           id="path250"
           style="fill:#c05f71;fill-opacity:1;fill-rule:nonzero;stroke:none"
           d="m 16122.7,6803.92 c 0,0 4.9,0.81 13.9,3.37 9,2.55 22,6.84 38.1,13.8 16.1,6.96 35.2,16.58 56.4,29.8 21.2,13.23 44.5,30.04 68.9,51.38 0,0 -3.5,-10.52 -11,-26.69 -7.5,-16.17 -19,-38 -35,-60.62 -15.9,-22.61 -36.3,-46.02 -61.7,-65.36 -25.3,-19.34 -55.6,-34.6 -91.3,-40.92 0,0 1,4.24 2.4,11.03 1.5,6.79 3.5,16.14 5.7,26.34 2.3,10.19 4.8,21.24 7.2,31.45 2.3,10.22 4.6,19.58 6.4,26.42" /></g><g
         transform="scale(1.47155)"
         id="g252"><path
           id="path254"
           style="fill:#ffffff;fill-opacity:1;fill-rule:nonzero;stroke:none"
           d="m 16222.9,6604.34 c 0,0 4.6,-1.46 11.5,-4.14 6.8,-2.69 16,-6.61 25.3,-11.57 9.2,-4.94 18.6,-10.92 25.8,-17.71 7.2,-6.78 12.3,-14.39 12.9,-22.59 0.6,-8.2 1.6,-23.46 -0.6,-42.88 -2.3,-19.43 -7.7,-43.03 -20,-67.93 -12.3,-24.92 -31.3,-51.13 -60.8,-75.77 -29.4,-24.65 -69.2,-47.73 -123,-66.37 l -37.4,33.02 -37.3,33.03 -37.4,33.03 -37.4,33.02 c 0,0 16.5,4.56 41.3,13.02 25,8.46 58.3,20.83 92.2,36.44 33.8,15.61 68.1,34.46 95,55.92 26.8,21.44 46.1,45.49 49.9,71.48" /></g><g
         transform="scale(1.43753)"
         id="g256"><path
           id="path258"
           style="fill:#ffffff;fill-opacity:1;fill-rule:nonzero;stroke:none"
           d="m 16300,6590.24 -37.6,-14.16 -37.6,-14.16 -37.6,-14.16 -37.6,-14.15 c 0,0 -2.2,8.72 -3.5,23.11 -1.5,14.4 -2.3,34.47 0.3,57.16 2.6,22.7 8.8,48.01 21,72.9 12.3,24.9 30.8,49.36 58.2,70.35 3,2.26 6.1,4.36 9.2,6.3 3.2,1.93 6.5,3.71 9.8,5.32 3.4,1.62 6.8,3.07 10.3,4.35 3.5,1.28 7,2.4 10.7,3.36 l 7,1.87 7,1.87 7.1,1.86 7,1.87 c 0,0 -2,-9.02 -4.3,-23.33 -2.4,-14.31 -5.2,-33.9 -6.8,-55.02 -1.6,-21.14 -2,-43.81 0.4,-64.28 2.3,-20.47 7.5,-38.73 17,-51.06" /></g><g
         transform="scale(1.45101)"
         id="g260"><path
           id="path262"
           style="fill:#303364;fill-opacity:1;fill-rule:nonzero;stroke:none"
           d="m 16223.5,7283.67 c -3.4,0 -6.9,-0.3 -10.3,-0.89 -3.5,-0.6 -6.9,-1.5 -10.3,-2.69 -3.4,-1.18 -6.7,-2.66 -10,-4.42 -3.3,-1.77 -6.5,-3.82 -9.6,-6.16 -4.4,-3.2 -8.4,-6.83 -12.1,-10.82 -3.7,-4 -7,-8.38 -10.1,-13.06 -3,-4.69 -5.6,-9.7 -7.9,-14.95 -2.3,-5.27 -4.1,-10.79 -5.6,-16.51 -2.9,-11.71 -3.7,-23.35 -2.8,-34.38 1,-11.03 3.7,-21.44 8.1,-30.68 4.2,-9.25 10.1,-17.33 17.3,-23.68 7.1,-6.36 15.6,-11 25,-13.37 9.6,-2.37 19.2,-2.24 28.5,0.01 9.3,2.25 18.3,6.63 26.4,12.76 8.1,6.14 15.5,14.04 21.5,23.33 6.1,9.28 10.8,19.97 13.7,31.67 1.4,5.73 2.4,11.48 2.8,17.17 0.5,5.71 0.5,11.38 0,16.93 -0.4,5.56 -1.3,11 -2.7,16.27 -1.4,5.27 -3.2,10.36 -5.5,15.21 -2.3,4.76 -4.9,9.13 -7.9,13.09 -2.9,3.97 -6.3,7.52 -9.8,10.6 -3.6,3.1 -7.5,5.75 -11.5,7.9 -4.2,2.15 -8.5,3.81 -13.1,4.94 -1.1,0.29 -2.3,0.54 -3.5,0.76 -1.2,0.22 -2.3,0.4 -3.5,0.54 -1.2,0.15 -2.3,0.26 -3.5,0.32 -1.2,0.08 -2.4,0.11 -3.6,0.11 z m -14.3,-184.72 c -1.3,0 -2.7,0.04 -4.1,0.13 -1.4,0.08 -2.8,0.21 -4.2,0.38 -1.4,0.17 -2.8,0.38 -4.2,0.64 -1.4,0.26 -2.8,0.56 -4.2,0.91 -11,2.74 -20.8,8.05 -29.2,15.3 -8.3,7.25 -15.1,16.43 -20.2,26.93 -5.1,10.5 -8.4,22.3 -9.5,34.79 -1.2,12.49 -0.3,25.67 3,38.9 1.6,6.36 3.6,12.5 6.2,18.36 2.5,5.86 5.4,11.43 8.8,16.66 3.4,5.23 7.2,10.11 11.3,14.59 4.2,4.47 8.7,8.53 13.5,12.12 5,3.66 10.1,6.72 15.3,9.17 5.3,2.45 10.6,4.29 16,5.5 5.5,1.21 10.9,1.81 16.4,1.75 5.5,-0.05 10.9,-0.74 16.3,-2.08 5.4,-1.34 10.5,-3.3 15.4,-5.82 4.8,-2.53 9.4,-5.62 13.6,-9.24 4.2,-3.61 8.1,-7.75 11.6,-12.38 3.4,-4.61 6.5,-9.72 9.1,-15.26 2.6,-5.45 4.7,-11.15 6.2,-17.05 1.6,-5.9 2.7,-11.99 3.2,-18.19 0.5,-6.2 0.5,-12.52 0,-18.88 -0.5,-6.35 -1.6,-12.75 -3.2,-19.11 -2.8,-11.56 -7.3,-22.22 -13,-31.71 -5.7,-9.49 -12.6,-17.81 -20.4,-24.69 -7.7,-6.87 -16.3,-12.3 -25.4,-16.02 -9,-3.7 -18.6,-5.7 -28.3,-5.7" /></g><g
         transform="scale(1.43552)"
         id="g264"><path
           id="path266"
           style="fill:#303364;fill-opacity:1;fill-rule:nonzero;stroke:none"
           d="m 16222.2,7430.93 c -3.5,0 -7,-0.31 -10.5,-0.91 -3.4,-0.61 -6.9,-1.51 -10.3,-2.71 -3.5,-1.2 -6.9,-2.7 -10.2,-4.48 -3.3,-1.78 -6.6,-3.86 -9.8,-6.21 -4.3,-3.24 -8.4,-6.91 -12.1,-10.95 -3.7,-4.05 -7.2,-8.46 -10.2,-13.2 -3.1,-4.74 -5.7,-9.79 -8,-15.12 -2.3,-5.31 -4.2,-10.89 -5.6,-16.67 v 0 0 0 0 c -1.5,-5.79 -2.4,-11.59 -2.9,-17.36 -0.5,-5.77 -0.5,-11.5 0,-17.11 0.5,-5.62 1.4,-11.12 2.8,-16.44 1.3,-5.33 3.2,-10.48 5.5,-15.38 2.3,-4.81 5,-9.23 8,-13.24 3,-4 6.3,-7.58 9.9,-10.71 3.7,-3.13 7.6,-5.8 11.7,-7.98 4.1,-2.17 8.5,-3.85 13.1,-4.99 4.6,-1.15 9.3,-1.74 14,-1.76 4.6,-0.03 9.4,0.49 14,1.56 4.6,1.06 9.3,2.67 13.8,4.8 4.5,2.13 8.9,4.79 13.2,7.96 4.4,3.23 8.4,6.9 12.2,10.94 3.7,4.05 7.1,8.47 10.2,13.2 3,4.74 5.7,9.8 8,15.11 2.3,5.32 4.1,10.9 5.6,16.69 2.9,11.83 3.8,23.6 2.9,34.75 -1,11.15 -3.8,21.67 -8.2,31.01 -4.3,9.35 -10.2,17.51 -17.5,23.94 -7.2,6.43 -15.8,11.11 -25.3,13.51 -1.2,0.29 -2.4,0.55 -3.6,0.77 -1.2,0.21 -2.4,0.4 -3.5,0.54 -1.3,0.15 -2.5,0.26 -3.7,0.33 -1.1,0.08 -2.3,0.11 -3.5,0.11 z m -14.2,-186.75 c -1.5,0 -2.9,0.05 -4.3,0.13 -1.5,0.09 -2.9,0.22 -4.4,0.4 -1.4,0.17 -2.8,0.39 -4.2,0.65 -1.5,0.26 -2.9,0.58 -4.3,0.93 -5.4,1.36 -10.6,3.33 -15.5,5.88 -4.9,2.56 -9.5,5.68 -13.8,9.34 -4.2,3.66 -8.1,7.84 -11.7,12.51 -3.5,4.67 -6.6,9.83 -9.3,15.43 -2.5,5.5 -4.6,11.27 -6.2,17.23 -1.6,5.97 -2.7,12.12 -3.2,18.39 -0.5,6.27 -0.5,12.65 0,19.08 0.5,6.42 1.6,12.88 3.2,19.31 v 0 0 0 0 c 1.6,6.43 3.7,12.64 6.2,18.56 2.6,5.92 5.6,11.56 9,16.84 3.4,5.28 7.3,10.23 11.5,14.75 4.1,4.52 8.7,8.62 13.6,12.26 5,3.69 10.1,6.78 15.4,9.25 5.3,2.48 10.7,4.34 16.2,5.56 5.5,1.24 11,1.83 16.5,1.78 5.5,-0.05 11.1,-0.74 16.6,-2.11 11.1,-2.77 21,-8.15 29.4,-15.46 8.5,-7.33 15.3,-16.62 20.5,-27.23 5.1,-10.61 8.4,-22.54 9.6,-35.17 1.2,-12.62 0.3,-25.94 -3,-39.31 -1.7,-6.43 -3.7,-12.64 -6.3,-18.56 -2.5,-5.92 -5.5,-11.55 -8.9,-16.84 -3.4,-5.28 -7.3,-10.22 -11.5,-14.74 -4.2,-4.53 -8.7,-8.63 -13.6,-12.26 -3.7,-2.73 -7.5,-5.14 -11.4,-7.21 -3.9,-2.06 -7.8,-3.8 -11.8,-5.19 -4,-1.4 -8,-2.44 -12.1,-3.14 -4.1,-0.71 -8.2,-1.06 -12.2,-1.06" /></g><g
         transform="scale(1.43724)"
         id="g268"><path
           id="path270"
           style="fill:#303364;fill-opacity:1;fill-rule:nonzero;stroke:none"
           d="m 16296.2,7288.1 -7.7,2.75 -7.8,2.76 -7.7,2.75 -7.7,2.75 1,2.71 0.9,2.71 1,2.71 1,2.71 7.7,-2.75 7.7,-2.76 7.7,-2.75 7.7,-2.74 -1,-2.72 -0.9,-2.71 -1,-2.7 -0.9,-2.72" /></g><g
         transform="scale(1.45737)"
         id="g272"><path
           id="path274"
           style="fill:#303364;fill-opacity:1;fill-rule:nonzero;stroke:none"
           d="m 16296.7,7117.83 -19.6,5.97 -19.7,5.98 -19.6,5.97 -19.7,5.97 0.9,2.71 0.8,2.71 0.8,2.72 0.8,2.71 19.7,-5.97 19.6,-5.97 19.7,-5.97 19.6,-5.97 -0.8,-2.71 -0.8,-2.72 -0.9,-2.71 -0.8,-2.72" /></g><g
         transform="scale(1.41748)"
         id="g276"><path
           id="path278"
           style="fill:#303364;fill-opacity:1;fill-rule:nonzero;stroke:none"
           d="m 16272.6,3563.86 -1.1,8.89 -1,8.89 -1,8.96 -1,8.89 c -5.7,49.53 -10.1,99.19 -13,148.93 -2.9,49.66 -4.4,99.47 -4.5,149.28 -0.2,49.73 1.1,99.54 3.8,149.27 2.7,49.74 6.8,99.41 12.2,148.93 l 8.2,74.92 8.3,74.92 8.2,74.93 8.3,74.99 -36.8,-130.58 -36.9,-130.52 -36.8,-130.51 -36.8,-130.51 c -15.3,-54.26 -26.2,-109.35 -32.7,-164.8 -6.6,-55.46 -8.8,-111.26 -6.7,-166.85 2.2,-55.59 8.7,-111.04 19.6,-165.86 10.8,-54.74 25.9,-108.85 45.3,-161.69 l 4.6,-12.21 4.5,-12.21 4.4,-12.2 4.5,-12.2 19.1,74.57 19.1,74.56 19,74.57 19.2,74.64" /></g><g
         transform="scale(1.42962)"
         id="g280"><path
           id="path282"
           style="fill:#303364;fill-opacity:1;fill-rule:nonzero;stroke:none"
           d="m 15732.2,6019.98 -28.5,-0.79 -28.5,-0.8 -28.5,-0.79 -28.5,-0.8 23.2,16.48 23.3,16.48 23.2,16.48 23.3,16.47 136.3,45.47 136.3,45.47 136.2,45.46 136.3,45.47 c 4.3,1.45 8.7,1.95 13,1.61 4.3,-0.34 8.4,-1.5 12.2,-3.39 3.8,-1.9 7.2,-4.51 10,-7.73 2.9,-3.22 5.1,-7.06 6.6,-11.39 v 0 0 0 0 c 1.4,-4.33 1.9,-8.75 1.6,-13.03 -0.3,-4.28 -1.5,-8.43 -3.4,-12.21 -1.9,-3.79 -4.5,-7.21 -7.7,-10.06 -3.2,-2.83 -7.1,-5.09 -11.4,-6.53 l -136.3,-45.47 -136.2,-45.47 -136.3,-45.46 -136.2,-45.47" /></g><g
         transform="scale(1.49909)"
         id="g284"><path
           id="path286"
           style="fill:#da7987;fill-opacity:1;fill-rule:nonzero;stroke:none"
           d="m 16299.4,5350.48 -1.4,62.76 -1.3,62.76 -1.4,62.76 -1.3,62.76 -80,0.46 -80,0.47 -79.9,0.45 -80,0.46 7.2,-42.62 7.2,-42.62 7.3,-42.62 7.2,-42.63 -144.8,90.68 -144.9,90.67 -144.9,90.67 -144.8,90.67 v 0 0 0 0 c 0,0 -8.1,9.4 -20.6,23.53 -12.5,14.13 -29.3,32.99 -46.6,51.9 -17.4,18.92 -35.3,37.89 -49.9,52.24 -14.6,14.34 -26,24.07 -30.3,24.5 -4.4,0.44 -16.4,-2.26 -31.9,-6.95 -15.6,-4.69 -34.8,-11.37 -53.4,-18.93 -18.6,-7.56 -36.7,-15.98 -50.1,-24.15 -13.4,-8.16 -22.2,-16.07 -22.2,-22.59 0,-6.52 1.1,-19.42 3.1,-35.31 2,-15.88 5,-34.77 8.9,-53.27 4,-18.5 8.8,-36.61 14.5,-50.98 5.7,-14.35 12.3,-24.95 19.6,-28.42 7.4,-3.46 21.5,-9.18 38.5,-15.81 17.1,-6.63 37,-14.17 56,-21.28 19,-7.11 37.1,-13.78 50.5,-18.68 13.4,-4.9 21.9,-8.02 21.9,-8.02 v 0 0 0 0 c 27,-26.07 64.9,-62.34 108.9,-103.72 43.9,-41.38 94,-87.87 145.6,-134.37 51.5,-46.5 104.4,-93.03 154,-134.46 49.6,-41.42 95.9,-77.78 134.2,-104 0.6,-0.46 1.9,-1.46 3.6,-2.6 1.6,-1.13 3.6,-2.46 5.6,-3.73 2,-1.27 3.9,-2.54 5.4,-3.47 1.5,-1 2.6,-1.67 2.8,-1.8 10.5,-7.14 21.1,-14.21 31.7,-21.01 10.8,-6.81 21.6,-13.28 32.7,-19.22 11.1,-5.87 22.5,-11.2 34.3,-15.61 11.8,-4.47 24,-8.07 36.7,-10.47 14.3,-2.73 29,-4.27 43.6,-4.47 14.5,-0.2 29.1,0.87 43.4,3.4 14.3,2.54 28.3,6.47 41.7,11.88 13.5,5.47 26.4,12.4 38.5,20.88 1.4,0.93 2.7,1.86 4,2.93 1.4,1.07 2.8,2.2 4.2,3.34 1.4,1.2 2.8,2.4 4.3,3.73 1.5,1.27 3,2.67 4.5,4.07 14.9,13.81 27.9,29.15 39.1,45.7 11.3,16.47 20.7,34.08 28.1,52.56 7.5,18.41 13,37.69 16.5,57.44 3.5,19.67 5,39.82 4.4,60.14" /></g><g
         id="g288"><g
           clip-path="url(#clipPath294)"
           id="g290"><g
             transform="scale(1.49908)"
             id="g296"><path
               id="path298"
               style="fill:#c05f71;fill-opacity:1;fill-rule:nonzero;stroke:none"
               d="m 15945.9,5537.12 c 0,0 9.1,-7.55 26.6,-18.65 17.6,-11.1 43.5,-25.74 76.9,-39.9 33.3,-14.16 74.2,-27.84 121.8,-37.02 47.6,-9.19 101.9,-13.87 161.9,-10.05 l 2,49.06 2,49.05 1.9,49.06 2,49.06 -96.1,5.29 -96.1,5.28 -96.2,5.28 -96.1,5.29 -2.6,-27.94 -2.7,-27.94 -2.7,-27.93 -2.6,-27.94" /></g></g></g><g
         transform="scale(1.38379)"
         id="g300"><path
           id="path302"
           style="fill:#da7987;fill-opacity:1;fill-rule:nonzero;stroke:none"
           d="m 16107.3,1877.23 -0.1,-2.74 -0.2,-2.68 -0.2,-2.67 -0.2,-2.67 c -1.1,-16.34 -3.5,-32.45 -7.1,-48.28 -3.6,-15.75 -8.4,-31.21 -14.4,-46.25 -5.9,-15.03 -13.1,-29.55 -21.3,-43.57 -8.2,-13.95 -17.5,-27.32 -27.9,-39.96 l -11.9,-14.53 -11.8,-14.45 -11.9,-14.53 -11.9,-14.45 c 0,0 10.7,-0.29 27.5,-0.51 16.7,-0.22 39.4,-0.29 63.5,0.08 24.1,0.28 49.5,1.08 71.6,2.67 22,1.59 40.7,3.97 51.4,7.51 10.7,3.55 22.1,11.2 33.2,20.67 11.2,9.47 22.1,20.82 31.6,31.73 9.5,10.84 17.7,21.24 23.5,28.98 5.8,7.73 9.3,12.71 9.3,12.71 l -6.1,12 -6.2,12 -6.1,11.99 -6.1,12 5.8,23.7 5.8,23.78 5.8,23.7 5.9,23.77 h -47.9 -47.8 -47.9 -47.9" /></g><g
         transform="scale(1.38679)"
         id="g304"><path
           id="path306"
           style="fill:#1e1e43;fill-opacity:1;fill-rule:nonzero;stroke:none"
           d="m 16264.7,1730.54 c -24.6,-25.23 -56.2,-44.35 -90,-58.77 -33.7,-14.42 -69.5,-24.23 -102.3,-30.93 -32.6,-6.64 -62.3,-10.1 -83.8,-11.97 -21.5,-1.8 -34.8,-1.95 -34.8,-1.95 -42.4,-28.84 -79.2,-54.66 -110.7,-77.23 -31.5,-22.49 -57.5,-41.75 -78.3,-57.4 -20.8,-15.64 -36.3,-27.68 -46.5,-35.76 -10.3,-8.15 -15.4,-12.33 -15.4,-12.33 h 51.1 51 51.1 51.1 l 69.9,23.58 69.9,23.65 69.9,23.58 70,23.65 1.4,-21.85 1.4,-21.78 1.5,-21.85 1.4,-21.77 c 0.1,-1.01 0.4,-1.95 0.8,-2.81 0.4,-0.94 1,-1.66 1.7,-2.31 0.7,-0.65 1.5,-1.23 2.4,-1.59 0.9,-0.36 1.8,-0.5 2.8,-0.5 h 12.5 12.5 12.4 12.5 c 0.8,0 1.7,0.14 2.4,0.36 0.8,0.29 1.5,0.65 2.2,1.15 0.6,0.51 1.2,1.08 1.7,1.73 0.5,0.72 0.9,1.44 1.1,2.31 l 9.3,31.3 9.2,31.36 9.3,31.3 9.3,31.37 c 4.8,23.86 5.3,45.5 3.4,64.53 -1.9,19.04 -6.3,35.55 -11.2,48.96 -5,13.49 -10.5,23.95 -14.8,31.08 -4.3,7.14 -7.4,10.89 -7.4,10.89" /></g><g
         transform="scale(1.47269)"
         id="g308"><path
           id="path310"
           style="fill:#303364;fill-opacity:1;fill-rule:nonzero;stroke:none"
           d="m 16014.8,7267.58 c 0,0 1,-19.98 5.1,-51.49 4,-31.5 11.2,-74.54 23.6,-120.68 12.3,-46.13 29.8,-95.35 54.8,-139.23 24.8,-43.88 57.1,-82.41 98.7,-107.14 0,0 8.7,12.09 21.2,32.91 12.3,20.82 28.3,50.35 42.7,85.23 14.4,34.88 27.1,75.11 33.1,117.3 6,42.19 5.3,86.35 -7.6,129.09 -12.7,42.75 -33.9,75.38 -58.3,100.27 -24.5,24.89 -52.3,42.04 -78.6,53.86 -26.2,11.81 -50.8,18.28 -68.9,21.8 -18.1,3.51 -29.6,4.07 -29.6,4.07 0,0 -2.4,7.42 -8.5,17.71 -6,10.29 -15.7,23.46 -30.2,34.96 -14.5,11.5 -33.8,21.33 -59.1,24.95 -25.3,3.62 -56.7,1.02 -95.2,-12.32 -38.6,-13.34 -62.6,-37.75 -77.1,-66.86 -14.3,-29.11 -19.1,-62.91 -19,-95.05 0,-32.14 4.9,-62.61 9.7,-85.04 4.9,-22.44 9.8,-36.84 9.8,-36.84 0,0 6.3,11.44 16.8,28.45 10.5,17.02 25.3,39.61 42.2,61.93 17,22.32 36.2,44.35 55.6,60.25 19.5,15.91 39.1,25.68 56.9,23.45 17.8,-2.22 30.5,-8.43 39.7,-16.5 9.1,-8.07 14.7,-17.99 17.9,-27.63 3.4,-9.64 4.4,-19 4.6,-25.96 0.3,-6.95 -0.3,-11.49 -0.3,-11.49" /></g><path
         id="path312"
         style="fill:#394e90;fill-opacity:1;fill-rule:nonzero;stroke:none"
         d="m 5645.76,1948.6 h -565.27 l -71.94,262.7 -71.95,262.8 -71.94,262.7 -71.95,262.7 h 274.52 274.51 274.52 274.51 l -61.25,-262.7 -61.25,-262.7 -61.26,-262.8 -61.25,-262.7" /><g
         id="g314"><g
           clip-path="url(#clipPath320)"
           id="g316"><path
             id="path322"
             style="fill:#303364;fill-opacity:1;fill-rule:nonzero;stroke:none"
             d="m 5612.64,3086.2 c 0,0 -4.25,-53.7 -18.94,-137 -14.7,-83.4 -39.82,-196.4 -81.55,-315.2 -41.73,-118.9 -100.07,-243.4 -181.2,-349.8 -81.12,-106.3 -185.02,-194.5 -317.88,-240.5 l 6.81,-40.8 6.82,-40.9 6.81,-40.9 6.81,-40.9 h 170.34 170.33 170.33 170.34 l 69.84,304.9 69.83,304.9 69.84,304.9 69.84,304.9 -97.09,-3.4 -97.09,-3.4 -97.09,-3.4 -97.1,-3.4" /></g></g><path
         id="path324"
         style="fill:#7ab86a;fill-opacity:1;fill-rule:nonzero;stroke:none"
         d="m 5436.27,2998.4 -4.44,0.6 -4.44,0.5 -4.45,0.6 -4.44,0.6 c 0.11,0.9 3.11,23 9.51,61.9 6.4,38.9 16.2,94.4 29.93,162.1 13.72,67.7 31.37,147.5 53.46,234.9 22.09,87.3 48.62,182.2 80.11,280 29.12,90.5 64.1,188.2 105.5,287.3 41.39,99 89.21,199.5 144,295.5 54.8,96 116.57,187.6 185.89,268.9 69.32,81.3 146.18,152.3 231.14,207.2 l 2.43,-3.8 2.44,-3.8 2.43,-3.7 2.43,-3.8 c -83.84,-54.2 -159.72,-124.4 -228.2,-204.8 -68.48,-80.5 -129.56,-171.2 -183.76,-266.3 -54.21,-95.2 -101.54,-194.8 -142.55,-293 -41.01,-98.2 -75.7,-195.1 -104.59,-284.9 -31.38,-97.4 -57.82,-191.9 -79.83,-279 -22.01,-87 -39.59,-166.5 -53.27,-233.9 -13.67,-67.4 -23.44,-122.8 -29.82,-161.5 -6.38,-38.7 -9.36,-60.8 -9.48,-61.6" /><path
         id="path326"
         style="fill:#91c78b;fill-opacity:1;fill-rule:nonzero;stroke:none"
         d="m 5481.59,3308.7 c 0,0 15.46,22.5 48.23,53.1 32.76,30.7 82.83,69.3 152.03,101.5 69.2,32.2 157.53,58 266.84,62.7 109.3,4.8 239.58,-11.5 392.66,-63.2 0,0 -28.61,-23.6 -77.79,-55.6 -49.19,-32 -118.96,-72.3 -201.3,-105.6 -82.34,-33.3 -177.25,-59.6 -276.7,-63.5 -99.45,-4 -203.45,14.5 -303.97,70.6" /><path
         id="path328"
         style="fill:#91c78b;fill-opacity:1;fill-rule:nonzero;stroke:none"
         d="m 5517.68,3487 c 0,0 -25.04,11 -61.18,37.6 -36.14,26.5 -83.39,68.6 -127.82,130.6 -44.43,62.1 -86.04,144.1 -110.92,250.7 -24.87,106.5 -33,237.6 -10.46,397.6 0,0 28.54,-23.8 69.07,-66.2 40.53,-42.4 93.04,-103.6 140.98,-178.3 47.94,-74.8 91.31,-163.2 113.55,-260.2 22.24,-97 23.35,-202.6 -13.22,-311.8" /><path
         id="path330"
         style="fill:#91c78b;fill-opacity:1;fill-rule:nonzero;stroke:none"
         d="m 5603.24,3732.4 c 0,0 8.73,20.4 29.95,49.9 21.23,29.6 54.94,68.2 104.9,104.8 49.96,36.6 116.17,71.1 202.39,92.2 86.21,21 192.44,28.8 322.42,11.9 0,0 -19.01,-23.4 -53.08,-56.6 -34.07,-33.3 -83.2,-76.4 -143.44,-115.9 -60.24,-39.6 -131.59,-75.5 -210.1,-94.4 -78.5,-18.9 -164.17,-20.7 -253.04,8.1" /><path
         id="path332"
         style="fill:#91c78b;fill-opacity:1;fill-rule:nonzero;stroke:none"
         d="m 5689.36,4000.4 c 0,0 -17.24,11.8 -40.64,36.8 -23.39,25.1 -52.94,63.4 -77.55,116.2 -24.61,52.9 -44.28,120.4 -47.91,204 -3.63,83.5 8.77,183.1 48.29,300.1 0,0 18.09,-21.9 42.54,-59.5 24.44,-37.6 55.26,-90.9 80.7,-153.8 25.45,-63 45.54,-135.5 48.54,-211.5 3.01,-76 -11.07,-155.5 -53.97,-232.3" /><path
         id="path334"
         style="fill:#91c78b;fill-opacity:1;fill-rule:nonzero;stroke:none"
         d="m 5845.15,4303.8 c 0,0 9.61,14.1 29.99,33.1 20.37,19 51.5,43.1 94.53,63.1 43.03,20 97.96,36 165.92,39 67.97,2.9 148.98,-7.2 244.16,-39.3 0,0 -17.78,-14.7 -48.37,-34.6 -30.59,-19.9 -73.97,-45 -125.17,-65.7 -51.2,-20.7 -110.21,-37 -172.05,-39.5 -61.84,-2.4 -126.51,9 -189.01,43.9" /><path
         id="path336"
         style="fill:#91c78b;fill-opacity:1;fill-rule:nonzero;stroke:none"
         d="m 5927.55,4459.7 c 0,0 -14.03,9.6 -33.07,30 -19.03,20.4 -43.07,51.5 -63.1,94.5 -20.02,43 -36.02,98 -38.97,165.9 -2.96,68 7.13,149 39.28,244.2 0,0 14.72,-17.8 34.61,-48.4 19.89,-30.6 44.96,-73.9 65.66,-125.1 20.71,-51.2 37.05,-110.3 39.5,-172.1 2.44,-61.8 -9.02,-126.5 -43.91,-189" /><path
         id="path338"
         style="fill:#91c78b;fill-opacity:1;fill-rule:nonzero;stroke:none"
         d="m 6130.7,4692.3 c 0,0 4.65,12.9 16.68,31.9 12.02,19 31.42,44.1 60.92,68.5 29.5,24.3 69.1,48 121.53,64.1 52.43,16.1 117.68,24.7 198.48,19 0,0 -10.88,-15.1 -30.7,-36.8 -19.82,-21.8 -48.57,-50.1 -84.3,-76.7 -35.74,-26.6 -78.46,-51.3 -126.21,-65.8 -47.75,-14.5 -100.53,-18.7 -156.4,-4.2" /><path
         id="path340"
         style="fill:#7ab86a;fill-opacity:1;fill-rule:nonzero;stroke:none"
         d="m 5216.51,2998.2 c -0.3,2 -8.49,53.6 -31.94,140.7 -23.45,87 -62.17,209.5 -123.55,353.2 -61.37,143.8 -145.41,308.8 -259.47,481 -114.07,172.2 -258.18,351.5 -439.72,523.7 l 3.09,3.3 3.08,3.2 3.09,3.3 3.09,3.2 c 95.46,-90.5 180.4,-182.9 255.85,-274.6 75.46,-91.8 141.44,-182.8 198.98,-270.8 57.54,-88 106.64,-173 148.35,-252.4 41.7,-79.4 76.01,-153.3 103.97,-219.4 30.32,-71.5 55.01,-137.9 75.01,-197.3 19.99,-59.3 35.29,-111.7 46.81,-155.1 11.51,-43.5 19.25,-78.1 24.12,-101.9 4.88,-23.8 6.9,-36.9 6.97,-37.4 l -4.43,-0.7 -4.43,-0.7 -4.44,-0.6 -4.43,-0.7" /><path
         id="path342"
         style="fill:#7ab86a;fill-opacity:1;fill-rule:nonzero;stroke:none"
         d="m 5115.93,3382.2 c 0,0 -1.64,22.8 3.92,60.6 5.57,37.8 18.34,90.6 47.17,150.4 28.84,59.8 73.73,126.7 143.53,192.8 69.8,66 164.51,131.2 292.98,187.8 0,0 -3.2,-32.2 -14.82,-81.7 -11.62,-49.4 -31.66,-116.2 -65.33,-185.3 -33.68,-69.2 -80.99,-140.7 -147.16,-199.8 -66.17,-59 -151.19,-105.6 -260.29,-124.8" /><path
         id="path344"
         style="fill:#7ab86a;fill-opacity:1;fill-rule:nonzero;stroke:none"
         d="m 5169.54,3229.4 c 0,0 -19.2,-12.4 -54.97,-25.9 -35.78,-13.4 -88.13,-27.7 -154.43,-31.5 -66.3,-3.7 -146.56,3.2 -238.14,32.4 -91.58,29.1 -194.5,80.4 -306.12,165.5 0,0 29.71,12.7 78.61,26.5 48.9,13.8 117,28.5 193.81,32.5 76.8,4 162.31,-2.8 246.02,-32.1 83.7,-29.3 165.61,-81.2 235.22,-167.4" /><path
         id="path346"
         style="fill:#7ab86a;fill-opacity:1;fill-rule:nonzero;stroke:none"
         d="m 5002.13,3643.2 c 0,0 -8.23,23.2 -17.38,61.3 -9.14,38.2 -19.21,91.2 -22.9,150.9 -3.7,59.7 -1.01,126.1 15.35,190.8 16.37,64.7 46.41,127.8 97.44,181 0,0 12.49,-28.2 26.98,-72.6 14.49,-44.4 30.97,-104.9 38.93,-169.7 7.96,-64.7 7.41,-133.5 -12.15,-194.5 -19.57,-61 -58.16,-114.1 -126.27,-147.2" /><path
         id="path348"
         style="fill:#7ab86a;fill-opacity:1;fill-rule:nonzero;stroke:none"
         d="m 4514.91,3711.8 c 0,0 24.42,3.1 63.62,4 39.2,0.9 93.19,-0.4 152.33,-9.4 59.14,-9 123.43,-25.6 183.25,-55.3 59.82,-29.6 115.17,-72.3 156.41,-133.4 0,0 -30.22,-6.2 -76.67,-11 -46.46,-4.8 -109.15,-8.2 -174.09,-2.3 -64.94,5.9 -132.14,20.9 -187.61,52.9 -55.47,32 -99.21,80.9 -117.24,154.5" /><path
         id="path350"
         style="fill:#7ab86a;fill-opacity:1;fill-rule:nonzero;stroke:none"
         d="m 4877.11,3866.1 c 0,0 -18.47,-6.4 -49.13,-13 -30.67,-6.5 -73.53,-13.2 -122.32,-13.8 -48.79,-0.7 -103.5,4.7 -157.87,22.5 -54.37,17.7 -108.39,47.7 -155.8,96.2 0,0 18.17,8.9 48.47,18.4 30.29,9.6 72.71,20 121.2,23.1 48.49,3.1 103.06,-1.2 157.65,-20.7 54.59,-19.6 109.21,-54.4 157.8,-112.7" /><path
         id="path352"
         style="fill:#7ab86a;fill-opacity:1;fill-rule:nonzero;stroke:none"
         d="m 4658.44,4181.2 c 0,0 -15.4,-5.4 -40.99,-10.8 -25.58,-5.5 -61.34,-11.1 -102.05,-11.6 -40.7,-0.6 -86.35,4 -131.71,18.8 -45.36,14.7 -90.44,39.8 -129.99,80.3 0,0 15.16,7.3 40.44,15.3 25.27,8 60.66,16.7 101.12,19.3 40.46,2.5 85.98,-1 131.53,-17.3 45.55,-16.3 91.11,-45.4 131.65,-94" /><path
         id="path354"
         style="fill:#7ab86a;fill-opacity:1;fill-rule:nonzero;stroke:none"
         d="m 4564.06,4297.4 c 0,0 -8.18,14.1 -18.44,38.1 -10.26,24.1 -22.59,58.1 -30.91,98 -8.31,39.8 -12.61,85.5 -6.78,132.9 5.83,47.3 21.78,96.3 53.96,142.9 0,0 10.13,-13.5 22.82,-36.7 12.69,-23.3 27.95,-56.4 38.21,-95.6 10.27,-39.2 15.53,-84.6 8.24,-132.4 -7.29,-47.8 -27.14,-98.1 -67.1,-147.2" /><path
         id="path356"
         style="fill:#7ab86a;fill-opacity:1;fill-rule:nonzero;stroke:none"
         d="m 4442.54,4432.3 c 0,0 -13.37,2.1 -34.24,8.1 -20.88,6.1 -49.25,16 -79.26,31.5 -30.02,15.6 -61.67,36.8 -89.09,65.4 -27.42,28.6 -50.61,64.6 -63.71,109.7 0,0 13.98,-0.5 35.63,-4.6 21.64,-4 50.94,-11.6 81.56,-25.5 30.63,-14 62.59,-34.4 89.55,-64.2 26.96,-29.8 48.92,-68.9 59.56,-120.4" /><path
         id="path358"
         style="fill:#7ab86a;fill-opacity:1;fill-rule:nonzero;stroke:none"
         d="m 4819.45,3959.9 c 0,0 -10.54,16.4 -24.09,44.7 -13.55,28.3 -30.11,68.4 -42.16,115.7 -12.06,47.2 -19.6,101.7 -15.12,158.7 4.49,57 21.01,116.6 57.09,174 0,0 12.83,-15.6 29.26,-42.8 16.42,-27.2 36.43,-66 50.79,-112.4 14.35,-46.4 23.05,-100.5 16.83,-158.1 -6.21,-57.7 -27.33,-118.9 -72.6,-179.8" /><g
         transform="scale(1.59953)"
         id="g360"><path
           id="path362"
           style="fill:#f2f5fb;fill-opacity:1;fill-rule:nonzero;stroke:none"
           d="m 15725.7,8054.32 c -79.3,0 -154.9,-16.08 -223.6,-45.14 -68.7,-29.06 -130.5,-71.11 -182.5,-123.08 -52,-51.96 -94,-113.84 -123.1,-182.54 -29,-68.71 -45.1,-144.25 -45.1,-223.55 0,-35.18 3.1,-69.62 9.2,-103.05 6.1,-33.43 15.1,-65.85 26.6,-97 11.6,-31.14 25.8,-61.01 42.4,-89.34 16.5,-28.32 35.5,-55.1 56.5,-80.06 l -16.5,-75.29 -16.5,-75.28 -16.4,-75.29 -16.5,-75.28 77.6,32.58 77.6,32.58 77.5,32.58 77.6,32.58 c 15.3,-5.5 30.8,-10.37 46.6,-14.6 15.8,-4.22 31.9,-7.79 48.2,-10.67 16.3,-2.87 32.8,-5.07 49.6,-6.54 16.7,-1.46 33.7,-2.22 50.8,-2.22 79.3,0 154.9,16.07 223.6,45.13 68.7,29.07 130.5,71.12 182.5,123.08 52,51.97 94,113.84 123.1,182.55 29,68.71 45.1,144.25 45.1,223.54 0,79.3 -16.1,154.84 -45.1,223.55 -29.1,68.7 -71.1,130.58 -123.1,182.54 -52,51.97 -113.8,94.02 -182.5,123.08 -68.7,29.06 -144.3,45.14 -223.6,45.14" /></g><g
         transform="scale(1.59667)"
         id="g364"><path
           id="path366"
           style="fill:#cfd3ee;fill-opacity:1;fill-rule:nonzero;stroke:none"
           d="m 16298.3,7493.38 c -4.4,140.63 -51.7,259.54 -125.3,351.58 -73.5,92.04 -173.2,157.21 -282.5,190.35 -109.3,33.14 -228.2,34.27 -340,-1.78 -111.7,-36.06 -216.4,-109.29 -297.3,-224.85 -34.7,-51.6 -59.8,-108.3 -75.5,-167.27 -15.6,-58.97 -21.7,-120.2 -18.4,-180.88 3.3,-60.68 16.2,-120.81 38.3,-177.56 22.3,-56.75 53.8,-110.11 94.9,-157.29 0,0 -0.1,-0.27 -0.2,-0.69 -0.1,-0.4 -0.2,-0.95 -0.3,-1.5 -0.2,-0.55 -0.3,-1.09 -0.3,-1.51 -0.2,-0.41 -0.2,-0.68 -0.2,-0.68 l -16.7,-75.38 -16.7,-75.38 -16.6,-75.38 -16.7,-75.37 -2.9,2.39 -2.8,2.39 -2.9,2.4 -2.8,2.39 77.9,32.14 77.9,32.15 77.9,32.14 77.9,32.14 0.6,0.24 0.6,0.24 0.6,0.23 0.5,0.24 0.6,-0.2 0.6,-0.22 0.5,-0.21 0.6,-0.2 c 49.5,-18.64 101.3,-29.69 153.6,-33.52 52.3,-3.82 105.2,-0.43 156.7,9.8 51.4,10.23 101.5,27.31 148.5,50.85 46.9,23.54 90.6,53.54 129.3,89.64 -4.8,-4.56 -9.6,-9.06 -14.5,-13.48 -4.9,-4.42 -9.9,-8.77 -15,-13.04 -5,-4.27 -10.2,-8.47 -15.4,-12.58 -5.1,-4.12 -10.4,-8.16 -15.7,-12.11 -26.8,-19.68 -55.4,-36.88 -85.2,-51.49 -29.8,-14.6 -61,-26.61 -92.8,-35.89 -31.9,-9.28 -64.7,-15.84 -97.7,-19.55 -33,-3.7 -66.4,-4.56 -99.6,-2.43 -13.3,0.85 -26.6,2.15 -39.8,3.92 -13.2,1.77 -26.4,3.99 -39.5,6.67 -13,2.67 -26.1,5.79 -38.9,9.37 -12.9,3.56 -25.7,7.58 -38.3,12.03 l 1.2,0.03 1.1,0.03 1.2,0.03 1.1,0.02 -77.5,-33.13 -77.5,-33.13 -77.5,-33.14 -77.5,-33.14 -3.8,-1.6 -3.7,-1.59 -3.7,-1.6 -3.8,-1.6 0.9,3.99 0.9,3.99 0.8,4 0.9,3.99 16.3,75.45 16.3,75.46 16.3,75.46 16.3,75.46 0.5,-1.97 0.5,-1.96 0.5,-1.97 0.4,-1.96 c -15,17.86 -29.1,36.65 -41.9,56.19 -12.8,19.55 -24.4,39.87 -34.9,60.81 -10.4,20.94 -19.5,42.51 -27.4,64.55 -7.8,22.03 -14.4,44.54 -19.5,67.39 -6.5,28.56 -10.6,57.6 -12.5,86.78 -2,29.19 -1.7,58.52 0.7,87.68 2.5,29.15 7.1,58.13 13.7,86.6 6.7,28.47 15.6,56.43 26.4,83.56 15.2,37.95 34.6,74.18 57.5,108.05 22.9,33.86 49.4,65.35 78.9,93.8 29.4,28.45 61.8,53.86 96.4,75.57 34.6,21.7 71.6,39.69 110.2,53.32 93.7,34.73 189.4,42.77 280.1,29.06 90.8,-13.71 176.6,-49.18 250.5,-101.46 73.9,-52.28 135.9,-121.38 179,-202.33 43.1,-80.96 67.3,-173.79 65.6,-273.55 v 0 0 0 0" /></g><g
         transform="scale(1.51363)"
         id="g368"><path
           id="path370"
           style="fill:#cfd3ee;fill-opacity:1;fill-rule:nonzero;stroke:none"
           d="m 16300,7920.21 c 0,-9.07 -1.9,-17.71 -5.2,-25.58 -3.3,-7.85 -8.1,-14.93 -14,-20.88 -6,-5.94 -13,-10.75 -20.9,-14.08 -7.9,-3.32 -16.5,-5.16 -25.6,-5.16 -9.1,0 -17.7,1.84 -25.6,5.16 -7.9,3.33 -14.9,8.14 -20.9,14.08 -5.9,5.95 -10.7,13.03 -14.1,20.88 -3.3,7.87 -5.1,16.51 -5.1,25.58 0,9.07 1.8,17.71 5.1,25.57 3.4,7.86 8.2,14.94 14.1,20.88 6,5.94 13,10.75 20.9,14.08 7.9,3.33 16.5,5.16 25.6,5.16 9.1,0 17.7,-1.83 25.6,-5.16 7.9,-3.33 14.9,-8.14 20.9,-14.08 5.9,-5.94 10.7,-13.02 14,-20.88 3.3,-7.86 5.2,-16.5 5.2,-25.57" /></g><g
         transform="scale(1.54927)"
         id="g372"><path
           id="path374"
           style="fill:#cfd3ee;fill-opacity:1;fill-rule:nonzero;stroke:none"
           d="m 16300,7737.99 c 0,-8.87 -1.7,-17.31 -5,-24.99 -3.3,-7.68 -8,-14.59 -13.8,-20.4 -5.8,-5.8 -12.7,-10.51 -20.4,-13.76 -7.7,-3.24 -16.1,-5.04 -25,-5.04 -8.8,0 -17.3,1.8 -24.9,5.04 -7.7,3.25 -14.6,7.96 -20.4,13.76 -5.8,5.81 -10.6,12.72 -13.8,20.4 -3.3,7.68 -5,16.12 -5,24.99 0,8.86 1.7,17.3 5,24.98 3.2,7.68 8,14.6 13.8,20.4 5.8,5.81 12.7,10.51 20.4,13.76 7.6,3.25 16.1,5.04 24.9,5.04 8.9,0 17.3,-1.79 25,-5.04 7.7,-3.25 14.6,-7.95 20.4,-13.76 5.8,-5.8 10.5,-12.72 13.8,-20.4 3.3,-7.68 5,-16.12 5,-24.98" /></g><g
         transform="scale(1.58492)"
         id="g376"><path
           id="path378"
           style="fill:#cfd3ee;fill-opacity:1;fill-rule:nonzero;stroke:none"
           d="m 16300,7563.93 c 0,-8.66 -1.8,-16.91 -4.9,-24.42 -3.2,-7.5 -7.8,-14.27 -13.5,-19.95 -5.6,-5.67 -12.5,-10.27 -20,-13.44 -7.5,-3.17 -15.7,-4.93 -24.4,-4.93 -8.6,0 -16.9,1.76 -24.4,4.93 -7.5,3.17 -14.3,7.77 -19.9,13.44 -5.7,5.68 -10.3,12.45 -13.5,19.95 -3.1,7.51 -4.9,15.76 -4.9,24.42 0,8.67 1.8,16.92 4.9,24.43 3.2,7.5 7.8,14.26 13.5,19.93 5.6,5.68 12.4,10.28 19.9,13.46 7.5,3.17 15.8,4.93 24.4,4.93 8.7,0 16.9,-1.76 24.4,-4.93 7.5,-3.18 14.4,-7.78 20,-13.46 5.7,-5.67 10.3,-12.43 13.5,-19.93 3.1,-7.51 4.9,-15.76 4.9,-24.43" /></g><g
         transform="scale(1.67385)"
         id="g380"><path
           id="path382"
           style="fill:#303364;fill-opacity:1;fill-rule:nonzero;stroke:none"
           d="m 1895.24,1164.14 c 1190.77,8.55 2388.76,14.94 3590.36,19.24 1201.61,4.3 2406.79,6.45 3612.03,6.45 1205.17,0 2410.37,-2.09 3611.97,-6.39 1201.6,-4.24 2399.6,-10.7 3590.4,-19.3 -1190.8,-8.6 -2388.8,-15.06 -3590.4,-19.3 -1201.6,-4.3 -2406.8,-6.45 -3611.97,-6.39 -1205.24,0 -2410.42,2.15 -3612.03,6.45 -1201.6,4.31 -2399.59,10.7 -3590.36,19.24 v 0 0 0 0" /></g></g></g></svg>